<?xml version="1.0" encoding="utf-8"?>
<!-- Generator: Adobe Illustrator 24.0.2, SVG Export Plug-In . SVG Version: 6.00 Build 0)  -->
<svg version="1.1" id="Слой_1" xmlns="http://www.w3.org/2000/svg" xmlns:xlink="http://www.w3.org/1999/xlink" x="0px" y="0px"
	 viewBox="0 0 62 63" style="enable-background:new 0 0 62 63;" xml:space="preserve">
<style type="text/css">
	.st0{fill:#FFFFFF;}
	.st1{fill-rule:evenodd;clip-rule:evenodd;fill:#FF8C38;}
	.st2{fill-rule:evenodd;clip-rule:evenodd;fill:#171717;}
	.st3{fill-rule:evenodd;clip-rule:evenodd;fill:#FFFFFF;}
</style>
<path class="st0" d="M48,9.3c1.4-0.5,2.9-1,3.6-1c0.1,0,0.1,0,0.1,0h0.4c0.6,0,1.1-0.6,1.1-1.2V6.6c-0.6-1.4-2.2-2.2-4.7-2.2
	c-2.1,0-4.6,0.5-6.4,0.9c-0.4,0.1-0.7,0.1-0.9,0.2c-3.1-1.2-6.7-2-10.3-2c-5.7,0-11,1.7-15.5,4.7C14.8,8,14,7.9,13.4,7.9
	c-1.7,0-3,0.7-3.7,2.2c-0.3,0.9,0.4,1.9,1.4,1.8h0.1h0.1c-5.1,5-8.2,12-8.2,19.7c0,15.4,12.6,28,28,28s28-12.6,28-28
	C58.9,22.4,54.7,14.4,48,9.3z M48.6,5.7c1.7,0,3.1,0.4,3.5,1.4C52,7,51.8,7,51.7,7c-1.2,0-3.2,0.7-4.9,1.4c-1.1-0.8-2.3-1.5-3.5-2.1
	C45,6,47,5.7,48.6,5.7z M41.8,11.2c0.1,0,0.3-0.1,0.7-0.4c0.5-0.4,1-0.7,1.7-0.7c0.2,0.4-3.2,5.8-3.5,7.2c3.1,1.2,7.1,9.1,8.1,11.7
	c2.1,5.2,4.4,12.5,2.2,12.5c-0.1,0-0.1,0-0.1,0c-0.9-0.1-3.1-4.3-4.3-5.1c-0.2,1.1-1.9,6.6-1.9,6.6c-0.2,0.6-1.1,3.5-3.4,5.7
	c-0.2,0.1-0.2,0.5,0,0.6c0.9,0.3,1.7,1,2,1.5c-1,0-6.3-0.1-12.5-0.1c-4.1,0-8.8,0.1-12.8,0.2c0.2-2.5,2.2-0.6-0.4-3.5
	c-3.8-4.2-4.6-9.1-5.1-14.6c-2.3,1.2-2.8,3.4-4.5,5c-0.2,0.1-0.3,0.2-0.4,0.2c-1,0-1.1-4.3-0.9-4.8c2.7-7,16.8-12.6,9.7-20.2
	c0.1,0,0.2,0,0.4,0.1c0.8,0.1,1.2,0.2,1.3,0.2c0.4,0-1.2-0.4-2.5-1.2c-0.7-0.4-1.3-0.7-1.9-0.9c0.7-0.6,1.4-1.1,2.1-1.6
	c1.2,0.3,2.5,0.7,3.5,0.7c0.2,0,0.4,0,0.6-0.1c1.4-0.3,2.5-0.5,3.6-0.5c1.9,0,3.5,0.7,5.6,2.7c1.9-6.4,6.8-4.9,11.5-5.4
	c0.2,0,0.6-0.1,0.9-0.1c1.5,0.6,2.9,1.4,4.3,2.2c-0.2,0.1-0.4,0.2-0.6,0.2C42.8,10.1,41.6,11.2,41.8,11.2z M38.4,5.8
	c-0.2,0-0.6,0-0.8,0c-3.4,0.1-7.2,0.2-9.2,4.4c-1.7-1.2-3.2-1.8-5.1-1.8c-1.2,0-2.6,0.2-3.8,0.6c-0.1,0-0.2,0-0.3,0
	c-0.6,0-1.3-0.2-2-0.4c4-2.5,8.8-3.9,13.8-3.9C33.6,4.7,36.1,5.1,38.4,5.8z M10.7,10.6c0.6-1.1,1.5-1.5,2.7-1.5c0.2,0,0.5,0,0.8,0.1
	c-0.6,0.5-1.2,0.9-1.8,1.5c-0.4-0.1-0.7-0.1-0.9-0.1C11.1,10.5,11,10.5,10.7,10.6z M31,58.2c-14.8,0-26.8-12-26.8-26.7
	c0-7.6,3.2-14.6,8.4-19.5c0.6,0.2,1.3,0.6,2,0.9l0.8,0.9c3.6,3.8,0.9,6.8-3.9,11.5c-2.5,2.3-4.9,4.8-6,7.5c-0.3,0.9-0.3,4.4,0.6,5.7
	c0.5,0.7,1.1,0.8,1.4,0.8c0.4,0,0.9-0.2,1.3-0.6c0.8-0.7,1.3-1.5,1.9-2.3c0.3-0.4,0.6-0.8,0.8-1.2c0.6,4.4,1.7,8.9,5.2,13
	c0.2,0.2,0.4,0.5,0.7,0.8c-0.2,0.4-0.5,0.9-0.6,1.7l-0.1,1.4l1.4-0.1c3.5-0.2,7.7-0.2,12.7-0.2c4.4,0,8.2,0.1,10.5,0.1
	c1,0,1.7,0,2,0h2.2l-1.2-1.9c-0.2-0.4-0.8-0.9-1.4-1.4c1.7-2,2.6-4.3,2.8-5.1c0-0.1,0.1-0.1,0.1-0.2l0.3-0.8L46,42.7
	c0.1-0.2,0.1-0.4,0.2-0.7c0.3-1,0.6-2.1,0.9-3c0.2,0.2,0.3,0.4,0.5,0.7c1.4,2,2.2,3,3.1,3.1c0.1,0,0.2,0,0.2,0
	c0.7,0,1.3-0.3,1.7-0.9c1.1-1.7,0.2-6.1-2.7-13.3c-0.8-1.9-4.3-9.3-7.8-11.8c0.4-0.8,1-2,1.5-2.8c1.1-2,1.6-2.9,1.7-3.5
	c0.1-0.1,0.4-0.1,0.6-0.2c0.2-0.1,0.4-0.2,0.7-0.3c6.7,4.9,11,12.8,11,21.6C57.7,46.2,45.7,58.2,31,58.2z"/>
<g>
	<path class="st1" d="M57.7,31.5c0-14.8-12-26.8-26.7-26.8c-14.8,0-26.8,12-26.8,26.8s12,26.8,26.8,26.8
		C45.7,58.2,57.7,46.2,57.7,31.5z"/>
</g>
<path class="st2" d="M13.7,51.9c4.7,3.9,10.7,6.4,17.3,6.4s12.6-2.4,17.3-6.4C42.8,50.4,37,49.7,31,49.7S19.2,50.4,13.7,51.9z"/>
<path class="st2" d="M43.2,50.7c-1.8,0-15.2-0.4-25.2,0.1c0.2-2.5,2.2-0.6-0.4-3.5c-3.8-4.2-4.6-9.1-5.1-14.6
	c-2.3,1.2-2.8,3.4-4.5,5c-1.5,1.4-1.5-3.9-1.3-4.6c2.7-7,16.8-12.6,9.7-20.2c0.1,0,0.2,0,0.4,0.1c2.8,0.5,0.7,0.1-1.2-1
	c-2.2-1.2-3.7-1.9-4.8-1.5c1.8-3.3,6.6,0.1,9.1-0.4c3.9-0.9,5.9-0.9,9.1,2.2c1.9-6.4,6.8-4.9,11.5-5.4c2.5-0.2,10.5-2.7,11.8,0.2
	c-1.4-0.4-6,1.7-7.2,2.2c-2.9,1.2-4,2.7-2.5,1.6c0.5-0.4,1-0.7,1.7-0.7c0.2,0.4-3.2,5.8-3.5,7.2c3.1,1.2,7.1,9.1,8.1,11.7
	c2.2,5.2,4.6,12.7,2,12.5c-0.9-0.1-3.1-4.3-4.3-5.1c-0.2,1.1-1.9,6.6-1.9,6.6c-0.2,0.6-1.1,3.5-3.4,5.7c-0.2,0.1-0.2,0.5,0,0.6
	C42.1,49.6,43,50.3,43.2,50.7z M41.9,45.1c5.3-8.8,6.4-30.6-8.1-25.2c-3.9,1.4-3.6,6.4-5.1,9.4c-1.9,4.1-2.5,7.5-1.4,11.9
	c0.1,0.4,1.2,2.9,2.2,4.7C31.4,49.1,38.6,50.5,41.9,45.1z M27,44.4c-0.1,0.4-0.4,0.9-0.6,0.9c-1.4,0.7-2.5-3-2.8-3.6
	c-2.7-5.4-1.4-11.7,0.9-17c0.6-1.5,2.6-3.6,0.7-4.9c-0.2-0.2-4-0.6-3.9-0.9c-1.5-1-4.3,4.6-5.3,5.8c-4.1,4.6-1.7,17.3,2.4,21.2
	c2.2,2.1,10.4,4.1,8.9-1.3C27.1,44.2,27.2,43.9,27,44.4z"/>
<path class="st3" d="M23.7,12.3c0-0.8-0.7-1.5-1.5-1.5s-1.5,0.7-1.5,1.5c0,0.8,0.7,1.5,1.5,1.5S23.7,13.1,23.7,12.3z"/>
<path class="st3" d="M37.3,10c0-0.8-0.7-1.5-1.5-1.5c-0.8,0-1.5,0.7-1.5,1.5c0,0.8,0.7,1.5,1.5,1.5C36.6,11.5,37.3,10.8,37.3,10z"/>
<path class="st3" d="M41.9,45.1c5.3-8.8,6.4-30.6-8.1-25.2c-3.9,1.4-3.6,6.4-5.1,9.4c-1.9,4.1-2.5,7.5-1.4,11.9
	c0.1,0.4,1.2,2.9,2.2,4.7C31.4,49.1,38.6,50.5,41.9,45.1z"/>
<path class="st3" d="M27,44.4c-0.1,0.4-0.4,0.9-0.6,0.9c-1.4,0.7-2.5-3-2.8-3.6c-2.7-5.4-1.4-11.7,0.9-17c0.6-1.5,2.6-3.6,0.7-4.9
	c-0.2-0.2-4-0.6-3.9-0.9c-1.5-1-4.3,4.6-5.3,5.8c-4.1,4.6-1.7,17.3,2.4,21.2c2.2,2.1,10.4,4.1,8.9-1.3C27.1,44.2,27.2,43.9,27,44.4z
	"/>
</svg>
