<svg width="232" height="56" viewBox="0 0 232 56" fill="none" xmlns="http://www.w3.org/2000/svg">
<path d="M45.5636 5.79736C46.9368 5.30396 48.4972 4.7489 49.2462 4.7489C49.3086 4.7489 49.371 4.7489 49.371 4.7489H49.7455C50.3697 4.7489 50.869 4.19383 50.869 3.57709V3.0837C50.2448 1.6652 48.622 0.92511 46.1254 0.92511C44.0032 0.92511 41.5066 1.4185 39.6965 1.78855C39.322 1.85022 39.01 1.91189 38.7603 1.97357C35.5771 0.740088 32.0194 0 28.3368 0C22.5322 0 17.1644 1.72687 12.6704 4.68722C11.9214 4.5022 11.1725 4.37885 10.4859 4.37885C8.73823 4.37885 7.48991 5.11894 6.74092 6.53744C6.42884 7.46255 7.17783 8.38766 8.11407 8.32599H8.2389H8.30132C3.18321 13.3216 0 20.2907 0 28C0 43.4185 12.7329 56 28.3368 56C43.9408 56 56.6737 43.4185 56.6737 28C56.6113 18.9339 52.3046 10.9163 45.5636 5.79736ZM46.1878 2.15859C47.873 2.15859 49.3086 2.52863 49.7455 3.57709C49.6207 3.51542 49.4334 3.51542 49.2462 3.51542C48.0603 3.51542 46.0005 4.25551 44.3153 4.93392C43.1918 4.13216 42.0059 3.45374 40.7576 2.837C42.5053 2.52863 44.5026 2.15859 46.1878 2.15859ZM39.2596 7.70925C39.322 7.70925 39.5717 7.5859 39.9462 7.33921C40.4455 6.96916 41.0073 6.66079 41.6938 6.59912C41.8811 7.03084 38.4482 12.3965 38.1361 13.7533C41.2569 14.9868 45.314 22.8811 46.375 25.4714C48.4972 30.652 50.869 37.9295 48.5596 37.9295C48.4972 37.9295 48.4972 37.9295 48.4348 37.9295C47.5609 37.8678 45.2516 33.674 44.0657 32.8722C43.816 33.9824 42.1308 39.4714 42.1308 39.4714C41.9435 40.0264 41.0073 42.9868 38.6979 45.207C38.5106 45.3304 38.5106 45.7004 38.6979 45.7621C39.5717 46.0705 40.4455 46.8106 40.6952 47.2423C39.6341 47.2423 34.3288 47.1189 28.0872 47.1189C23.9053 47.1189 19.2241 47.1806 15.1671 47.3656C15.4167 44.837 17.3516 46.8106 14.7302 43.9119C10.9228 39.7181 10.049 34.8458 9.54964 29.3568C7.24025 30.5286 6.74092 32.7489 4.99328 34.3524C4.80603 34.4758 4.6812 34.5991 4.55636 34.5991C3.49529 34.5991 3.43288 30.3436 3.68254 29.7885C6.36643 22.8194 20.6597 17.1454 13.4818 9.55947C13.6067 9.55947 13.7315 9.55947 13.8563 9.62115C14.6677 9.74449 15.0422 9.80617 15.1671 9.80617C15.5416 9.80617 13.9812 9.37445 12.6704 8.63436C11.9839 8.26432 11.3597 7.95595 10.798 7.70925C11.4845 7.15418 12.1711 6.59912 12.9201 6.10573C14.1684 6.4141 15.4167 6.84581 16.4154 6.84581C16.6026 6.84581 16.8523 6.84581 16.9771 6.78414C18.3503 6.47577 19.5362 6.29075 20.5973 6.29075C22.5322 6.29075 24.155 6.96916 26.2147 8.94273C28.0872 2.59031 33.1429 4.00881 37.8241 3.51542C38.0737 3.51542 38.3858 3.45374 38.6979 3.39207C40.1959 4.00881 41.6314 4.7489 43.0046 5.61233C42.7549 5.73568 42.5677 5.79736 42.4428 5.85903C40.2583 6.59912 39.0724 7.70925 39.2596 7.70925ZM35.8268 2.28194C35.5771 2.28194 35.265 2.28194 35.0153 2.28194C31.5825 2.40529 27.7751 2.46696 25.7154 6.72247C24.0301 5.48899 22.4697 4.93392 20.5973 4.93392C19.3489 4.93392 17.9758 5.18062 16.7275 5.48899C16.6651 5.48899 16.5402 5.48899 16.4154 5.48899C15.8536 5.48899 15.1047 5.30396 14.3557 5.11894C18.4127 2.65198 23.2187 1.23348 28.3368 1.23348C30.9583 1.23348 33.4549 1.60352 35.8268 2.28194ZM7.80199 7.09251C8.42615 5.98238 9.36239 5.61233 10.4859 5.61233C10.7355 5.61233 10.9852 5.61233 11.2973 5.67401C10.6731 6.1674 10.049 6.59912 9.48722 7.15418C9.11273 7.09251 8.80065 7.03084 8.55098 7.03084C8.2389 6.96916 8.05166 7.03084 7.80199 7.09251ZM28.3368 54.7048C13.357 54.7048 1.24832 42.7401 1.24832 28C1.24832 20.3524 4.49395 13.3833 9.73689 8.51101C10.361 8.75771 11.0476 9.06608 11.7342 9.43612L12.5456 10.2996C16.1657 14.1233 13.4194 17.1454 8.55098 21.7709C6.05435 24.1145 3.55771 26.5815 2.49664 29.2952C2.18456 30.1586 2.18456 33.674 3.1208 35.0308C3.62012 35.7092 4.24428 35.8326 4.55636 35.8326C4.99328 35.8326 5.43019 35.6476 5.8671 35.2775C6.67851 34.5374 7.17783 33.7357 7.73958 32.9956C8.05166 32.5639 8.30132 32.1938 8.55098 31.8238C9.11273 36.2643 10.2362 40.7665 13.7939 44.7753C13.9812 45.022 14.2308 45.2687 14.4805 45.5771C14.2308 45.9471 13.9812 46.5022 13.9188 47.304L13.7939 48.7225L15.2295 48.6608C18.7248 48.4758 23.0315 48.4141 28.0872 48.4141C32.5187 48.4141 36.3885 48.4758 38.7603 48.5374C39.759 48.5374 40.4455 48.5374 40.7576 48.5374H43.0046L41.8187 46.6872C41.569 46.2555 41.0073 45.7621 40.3831 45.3304C42.1308 43.2952 43.0046 41.0132 43.2542 40.2114C43.2542 40.1498 43.3167 40.0881 43.3167 40.0264L43.6287 39.2247L43.5663 39.163C43.6287 38.978 43.6912 38.7313 43.7536 38.4846C44.0657 37.4361 44.3777 36.3877 44.6898 35.4626C44.8771 35.7092 45.0019 35.8943 45.1891 36.141C46.6247 38.1145 47.3737 39.1013 48.3724 39.2247C48.4348 39.2247 48.5596 39.2247 48.622 39.2247C49.3086 39.2247 49.9328 38.9163 50.3072 38.3612C51.4307 36.696 50.4945 32.2555 47.5609 25.1013C46.7495 23.1894 43.1918 15.8502 39.6965 13.3216C40.071 12.5198 40.7576 11.348 41.1945 10.4846C42.318 8.51101 42.8173 7.5859 42.8797 6.96916C43.0046 6.90749 43.2542 6.84581 43.5039 6.72247C43.6912 6.66079 43.9408 6.53744 44.1905 6.4141C50.9314 11.2863 55.3629 19.1806 55.3629 28.0617C55.3629 42.7401 43.2542 54.7048 28.3368 54.7048Z" fill="white"/>
<path fill-rule="evenodd" clip-rule="evenodd" d="M55.3634 28.0009C55.3634 13.1991 43.2547 1.23434 28.3373 1.23434C13.3575 1.23434 1.24878 13.1991 1.24878 28.0009C1.24878 42.8026 13.3575 54.7674 28.3373 54.7674C43.2547 54.7057 55.3634 42.741 55.3634 28.0009Z" fill="#FFCE84"/>
<path fill-rule="evenodd" clip-rule="evenodd" d="M10.798 48.3524C15.5416 52.2995 21.6583 54.7048 28.3369 54.7048C35.0154 54.7048 41.1321 52.2995 45.8757 48.3524C40.2583 46.9339 34.3912 46.1938 28.3369 46.1938C22.2825 46.1938 16.4154 46.9339 10.798 48.3524Z" fill="#FF7222"/>
<path fill-rule="evenodd" clip-rule="evenodd" d="M40.6953 47.2423C38.8852 47.2423 25.2786 46.8722 15.1672 47.3656C15.4169 44.837 17.3518 46.8106 14.7303 43.9119C10.9229 39.7181 10.0491 34.8458 9.54976 29.3568C7.24037 30.5286 6.74104 32.7489 4.9934 34.3524C3.49542 35.7092 3.433 30.4053 3.68266 29.7269C6.36655 22.7577 20.6598 17.0837 13.482 9.49779C13.6068 9.49779 13.7316 9.49779 13.8565 9.55947C16.6652 10.0529 14.543 9.62114 12.6706 8.57268C10.486 7.40088 8.9256 6.72246 7.80211 7.09251C9.61218 3.76211 14.4806 7.21585 16.9773 6.66079C20.9719 5.79735 22.9692 5.79735 26.2148 8.81938C28.0873 2.46696 33.143 3.88546 37.8242 3.39207C40.3208 3.14537 48.4349 0.67841 49.7456 3.57709C48.3725 3.14537 43.6289 5.24229 42.443 5.73568C39.5094 6.90748 38.3859 8.44933 39.9463 7.3392C40.4456 6.96916 41.0074 6.66079 41.694 6.59911C41.8812 7.03083 38.4483 12.3965 38.1363 13.7533C41.2571 14.9868 45.3141 22.8811 46.3752 25.4714C48.5597 30.7136 50.9939 38.1762 48.4349 37.9295C47.5611 37.8678 45.2517 33.674 44.0658 32.8722C43.8161 33.9824 42.1309 39.4714 42.1309 39.4714C41.9436 40.0264 41.0074 42.9868 38.698 45.207C38.5108 45.3304 38.5108 45.7004 38.698 45.7621C39.5718 46.0705 40.4456 46.8106 40.6953 47.2423ZM39.3846 41.6299C44.7523 32.8722 45.8134 11.0396 31.1457 16.4053C27.2135 17.8238 27.4631 22.8194 26.0276 25.8414C24.1551 29.9736 23.4685 33.304 24.592 37.7445C24.6544 38.1145 25.7779 40.6432 26.839 42.4317C28.7115 45.5771 36.0765 46.9956 39.3846 41.6299ZM24.2799 40.8899C24.1551 41.3216 23.9054 41.7533 23.7182 41.815C22.345 42.5551 21.1591 38.8546 20.847 38.1762C18.1632 32.7489 19.4739 26.4581 21.7209 21.1542C22.345 19.674 24.3423 17.5154 22.4074 16.2203C22.1578 16.0352 18.3504 15.6035 18.4752 15.3568C16.9773 14.3084 14.1061 19.9824 13.1075 21.1542C8.98802 25.7181 11.4222 38.4846 15.5417 42.37C17.7887 44.467 26.0276 46.4405 24.5296 41.0749C24.4048 40.7048 24.4672 40.3965 24.2799 40.8899Z" fill="#171717"/>
<path fill-rule="evenodd" clip-rule="evenodd" d="M20.9101 8.75773C20.9101 7.95597 20.2233 7.27756 19.4117 7.27756C18.6001 7.27756 17.9133 7.95597 17.9133 8.75773C17.9133 9.5595 18.6001 10.2379 19.4117 10.2379C20.2233 10.2379 20.9101 9.5595 20.9101 8.75773Z" fill="white"/>
<path fill-rule="evenodd" clip-rule="evenodd" d="M34.704 6.53746C34.704 5.7357 34.0173 5.05728 33.2057 5.05728C32.394 5.05728 31.7073 5.7357 31.7073 6.53746C31.7073 7.33922 32.394 8.01763 33.2057 8.01763C34.0173 8.01763 34.704 7.33922 34.704 6.53746Z" fill="white"/>
<path fill-rule="evenodd" clip-rule="evenodd" d="M39.3845 41.63C44.7523 32.8723 45.8133 11.0397 31.1456 16.4053C27.2134 17.8238 27.4631 22.8194 26.0275 25.8414C24.155 29.9736 23.4684 33.304 24.5919 37.7445C24.6543 38.1146 25.7778 40.6432 26.8389 42.4317C28.7114 45.5771 36.0765 46.9956 39.3845 41.63Z" fill="white"/>
<path fill-rule="evenodd" clip-rule="evenodd" d="M24.2797 40.8898C24.1549 41.3216 23.9052 41.7533 23.718 41.815C22.3448 42.555 21.1589 38.8546 20.8468 38.1762C18.1629 32.7489 19.4737 26.4581 21.7206 21.1542C22.3448 19.674 24.3421 17.5154 22.4072 16.2202C22.1576 16.0352 18.3502 15.6035 18.475 15.3568C16.977 14.3083 14.1059 19.9824 13.1072 21.1542C8.98779 25.718 11.422 38.4846 15.5415 42.37C17.7884 44.4669 26.0273 46.4405 24.5294 41.0749C24.4045 40.7048 24.4669 40.3965 24.2797 40.8898Z" fill="white"/>
<path d="M76.3347 33.6123C78.2696 33.6123 80.2045 33.489 82.2018 33.489C83.575 33.489 83.8246 34.5375 83.8246 35.956C83.8246 36.696 83.7622 37.6828 83.7622 38.5463V38.8546C83.7622 39.2247 83.7622 39.4097 83.2005 39.533H82.2018C80.5166 39.4714 78.9562 39.4714 77.7079 39.4097C73.6508 39.4097 69.6562 39.4714 65.5992 39.6564V39.4097C65.3495 39.2247 65.0999 38.6696 65.0999 38.1145V34.1057C65.0999 33.859 65.3495 33.6123 66.0361 33.1806C67.8462 31.9471 69.7186 30.7137 71.5287 29.4802L72.4025 28.8018C72.9018 28.4317 75.3985 26.5815 75.3985 24.6696C75.3985 23.9295 74.8992 23.4361 74.1502 23.4361C72.4025 23.4361 73.1515 25.4714 72.2777 25.6564H65.8488C65.4119 25.6564 65.0999 25.5947 65.0999 25.2247C65.6616 19.7974 69.2817 18.0088 74.4622 18.0088C79.2059 18.0088 83.6998 19.859 83.6998 24.4229C83.6374 29.2952 79.3931 30.5903 76.3347 33.6123Z" fill="#FF7222"/>
<path d="M85.4474 19.0586C85.4474 18.6885 86.3837 18.7502 86.9454 18.7502H98.2427C101.925 18.7502 105.108 21.0322 105.108 25.4727C105.108 31.27 100.302 32.4419 96.932 32.6886H94.2481C94.1857 34.2921 94.1232 35.8956 94.1232 37.4991V39.041C94.1232 39.3493 93.9984 39.5344 93.6239 39.5344H85.7595C85.4474 38.7326 85.385 38.1159 85.385 37.3141V19.0586H85.4474ZM93.7487 28.3097C95.5588 28.3097 97.4937 27.6313 97.4937 25.4727C97.4937 23.1908 95.3716 23.1291 93.7487 23.1291C93.3118 23.3141 93.2494 26.5212 93.2494 27.7546L93.7487 28.3097Z" fill="#171717"/>
<path d="M106.294 20.2908H106.606C106.731 20.2908 106.856 20.2908 106.919 20.2908H107.668C110.476 20.2908 113.347 20.1674 116.156 20.1674H119.839C120.088 20.1674 120.213 20.3524 120.213 20.5375V25.1013C120.213 25.348 120.088 25.348 119.839 25.5331H113.41V27.2599H114.034C115.657 27.2599 117.28 27.1366 119.027 27.1366C119.589 27.1366 119.714 27.3833 119.714 27.6916C119.714 27.815 119.651 28 119.651 28.185V28.6784C119.651 28.8018 119.651 28.9868 119.651 29.1718V29.6035C119.651 30.1586 119.714 30.282 119.714 30.7137V31.0837C119.651 31.2687 119.589 31.3304 119.464 31.3304C118.341 31.3304 117.092 31.4538 115.657 31.4538H113.41V33.1806C113.659 33.1806 113.847 33.1806 114.096 33.1806C115.345 33.1806 116.593 33.119 117.716 33.119H119.464C119.839 33.119 120.338 33.119 120.463 33.4273V37.8062C120.463 38.1762 120.4 38.3613 119.963 38.4229H106.232L105.795 38.0529V21.4626C105.795 20.6608 105.795 20.2908 106.294 20.2908Z" fill="#171717"/>
<path d="M141.06 24.978C141.06 25.5331 141.06 26.0264 141.06 26.5198V28C141.06 29.8502 141.122 31.4538 141.122 33.119V38.1146C141.06 38.5463 140.623 38.6079 140.373 38.6079H132.571C132.447 38.6079 132.135 38.1146 131.947 37.4361C131.011 34.8458 130.012 32.3172 129.201 29.7269V29.6652V29.6035C129.139 31.4538 129.139 33.2423 129.014 34.9692V37.7445C129.014 38.2379 129.014 38.4229 128.39 38.5463H122.647L122.023 37.9295C122.148 33.3657 122.086 28.2467 122.273 23.6212V20.6608C122.335 20.4758 122.398 20.1674 122.585 20.1674V20.2291C124.52 20.2291 126.58 20.1057 128.577 20.1057H130.886C131.136 20.1674 131.198 20.2291 131.198 20.4141C132.322 23.3745 133.383 26.3965 134.444 29.4185V27.3833C134.569 24.978 134.694 22.8194 134.694 20.5375C134.694 20.2291 135.318 20.2291 135.942 20.2291H140.686C141.31 20.5375 141.06 24.1762 141.06 24.978Z" fill="#171717"/>
<path d="M153.606 39.0397C151.296 39.0397 148.3 38.9163 145.804 37.0044L145.242 36.511C145.055 36.3877 144.93 36.2027 144.743 36.0176L144.306 35.4626C143.182 33.7357 142.621 31.8238 142.621 29.4185C142.621 27.3216 143.12 25.2864 144.368 23.6212L144.743 23.1278V22.9427C146.802 20.2908 150.36 19.7974 152.982 19.7974C154.979 19.7974 158.911 20.4141 160.534 22.696C161.158 23.5595 161.158 24.6696 161.47 25.9031C161.47 26.3348 160.846 26.3965 160.596 26.3965H159.473C158.599 26.3965 157.288 26.3348 155.978 26.3348H154.48C154.168 26.2115 154.105 25.7797 153.918 25.4714C153.793 25.163 153.481 24.9163 152.794 24.9163C150.797 24.9163 150.61 27.0132 150.61 28.6167C150.61 28.9868 150.61 29.3568 150.61 29.6035V30.652C150.61 32.0088 150.797 33.859 153.044 33.859C153.855 33.859 154.48 33.859 155.166 33.6123V32.9956C155.166 32.7489 155.166 32.6256 155.166 32.4405C155.166 32.3789 155.166 32.2555 155.166 32.1322H154.667C154.48 32.1322 154.292 32.1322 154.168 32.1322H152.982L152.482 31.6388C152.482 31.5154 152.482 31.3921 152.482 31.2071V30.2203C152.482 29.8502 152.482 29.5419 152.482 29.1718V28.8018C152.482 28.7401 152.482 28.6167 152.482 28.4934V28.3701C152.482 28.0617 152.607 27.8767 152.982 27.63H154.292C154.417 27.63 154.542 27.63 154.729 27.6916H155.978C156.664 27.6916 157.476 27.7533 158.037 27.7533H159.348C160.409 27.7533 161.533 27.815 161.845 28.1234C161.845 30.7753 161.72 33.489 161.72 36.141V37.3745C161.595 38.4846 155.229 39.0397 153.606 39.0397Z" fill="#171717"/>
<path d="M163.717 21.956C163.717 21.2159 163.779 20.4141 163.967 20.2291H171.519V31.7621C171.519 32.3789 171.581 33.5507 172.58 33.5507C173.204 33.5507 173.579 32.9339 173.579 32.2555V30.2203C173.579 28.2467 173.641 26.2115 173.641 24.1762C173.641 22.9428 173.641 21.7709 173.579 20.7225C173.579 20.4758 173.704 20.2908 173.953 20.1674H181.693V22.2027C181.63 24.5463 181.506 26.6432 181.443 28.9251V29.7886C181.443 30.0969 181.443 30.3436 181.443 30.5903C181.443 30.837 181.443 31.0837 181.443 31.2687V32.3172C181.443 33.304 181.381 34.4141 181.069 35.0309V35.0925C179.82 37.9295 176.45 38.793 173.329 38.793C173.142 38.793 172.955 38.793 172.767 38.7313H172.455C172.455 38.8546 172.206 38.8546 172.018 38.8546C171.519 38.8546 170.77 38.793 170.271 38.7313H169.647C166.838 38.4229 163.842 36.511 163.717 32.2555C163.717 30.0969 163.717 28.185 163.779 25.9648V25.5947C163.779 25.4714 163.779 25.2864 163.779 25.163C163.779 24.7313 163.717 24.3613 163.717 23.9295V23.4361C163.717 23.1894 163.717 22.6344 163.717 21.956Z" fill="#171717"/>
<path d="M183.69 20.5991C183.69 20.4141 184.002 20.4141 184.19 20.2908H191.679V38.1762C191.617 38.5463 191.555 38.6696 191.367 38.6696H183.753V20.5991H183.69Z" fill="#171717"/>
<path d="M212.901 24.978C212.901 25.5331 212.901 26.0264 212.901 26.5198V28C212.901 29.8502 212.963 31.4538 212.963 33.119V38.1146C212.901 38.5463 212.464 38.6079 212.214 38.6079H204.412C204.287 38.6079 203.975 38.1146 203.788 37.4361C202.852 34.8458 201.853 32.3172 201.042 29.7269V29.6652V29.6035C200.979 31.4538 200.979 33.2423 200.855 34.9692V37.7445C200.855 38.2379 200.855 38.4229 200.23 38.5463H194.488L193.864 37.9295C193.989 33.3657 193.926 28.2467 194.114 23.6212V20.6608C194.176 20.4758 194.239 20.1674 194.426 20.1674V20.2291C196.361 20.2291 198.42 20.1057 200.418 20.1057H202.727C202.977 20.1674 203.039 20.2291 203.039 20.4141C204.163 23.3745 205.224 26.3965 206.285 29.4185V27.3833C206.41 24.978 206.534 22.8194 206.534 20.5375C206.534 20.2291 207.159 20.2291 207.783 20.2291H212.526C213.151 20.5375 212.901 24.1762 212.901 24.978Z" fill="#171717"/>
<path d="M223.262 24.5463C223.075 24.5463 221.951 24.608 221.951 25.163C221.951 25.9031 223.511 25.9031 224.136 26.2115L226.195 26.7049C228.817 27.445 232 28.7401 232 32.3789C232 33.2423 231.875 33.9824 231.688 34.5992C230.44 38.2379 226.383 38.793 223.012 39.0397C221.327 38.978 218.581 38.793 217.145 37.6829V37.4978C215.397 36.2027 214.711 34.7842 214.586 32.9956C214.586 32.7489 214.711 32.6873 214.898 32.6873C215.085 32.6873 215.21 32.6873 215.397 32.6873H216.833C217.02 32.6873 217.207 32.6873 217.395 32.6873H217.769C217.832 32.6873 217.894 32.6873 217.956 32.6873C218.768 32.6873 219.829 32.6873 220.703 32.6873H221.327C222.326 32.6873 221.639 34.2908 223.449 34.2908C224.073 34.2908 224.885 33.9824 224.885 33.1806C224.885 32.3172 222.513 31.8855 221.327 31.5771H220.328C216.271 30.4053 214.648 28.6168 214.648 25.9031C214.648 21.1542 219.33 19.6124 223.387 19.6124C226.445 19.6124 229.191 20.7842 230.502 22.326C231.251 23.0661 231.376 24.1762 231.501 25.163L231.126 25.7181H228.754C227.943 25.7181 227.007 25.6564 226.07 25.6564C224.697 25.5947 225.384 24.5463 223.262 24.5463Z" fill="#171717"/>
</svg>
