<svg width="62" height="63" viewBox="0 0 62 63" fill="none" xmlns="http://www.w3.org/2000/svg">
<path d="M48.022 5.79736C49.3789 5.30396 50.9207 4.7489 51.6608 4.7489C51.7225 4.7489 51.7841 4.7489 51.7841 4.7489H52.1542C52.7709 4.7489 53.2643 4.19383 53.2643 3.57709V3.0837C52.6476 1.6652 51.0441 0.92511 48.5771 0.92511C46.4802 0.92511 44.0132 1.4185 42.2247 1.78855C41.8546 1.85022 41.5463 1.91189 41.2996 1.97357C38.1542 0.740088 34.6388 0 31 0C25.2643 0 19.9604 1.72687 15.5198 4.68722C14.7797 4.5022 14.0396 4.37885 13.3612 4.37885C11.6344 4.37885 10.4009 5.11894 9.66079 6.53744C9.35242 7.46255 10.0925 8.38766 11.0176 8.32599H11.141H11.2026C6.14537 13.3216 3 20.2907 3 28C3 43.4185 15.5815 56 31 56C46.4185 56 59 43.4185 59 28C58.9383 18.9339 54.6828 10.9163 48.022 5.79736ZM48.6388 2.15859C50.304 2.15859 51.7225 2.52863 52.1542 3.57709C52.0308 3.51542 51.8458 3.51542 51.6608 3.51542C50.489 3.51542 48.4537 4.25551 46.7885 4.93392C45.6784 4.13216 44.5066 3.45374 43.2731 2.837C45 2.52863 46.9736 2.15859 48.6388 2.15859ZM41.7929 7.70925C41.8546 7.70925 42.1013 7.5859 42.4714 7.33921C42.9648 6.96916 43.5198 6.66079 44.1982 6.59912C44.3833 7.03084 40.9912 12.3965 40.6828 13.7533C43.7665 14.9868 47.7753 22.8811 48.8238 25.4714C50.9207 30.652 53.2643 37.9295 50.9824 37.9295C50.9207 37.9295 50.9207 37.9295 50.859 37.9295C49.9956 37.8678 47.7137 33.674 46.5418 32.8722C46.2952 33.9824 44.63 39.4714 44.63 39.4714C44.4449 40.0264 43.5198 42.9868 41.2379 45.207C41.0529 45.3304 41.0529 45.7004 41.2379 45.7621C42.1013 46.0705 42.9648 46.8106 43.2114 47.2423C42.163 47.2423 36.9207 47.1189 30.7533 47.1189C26.6211 47.1189 21.9956 47.1806 17.9868 47.3656C18.2335 44.837 20.1454 46.8106 17.5551 43.9119C13.793 39.7181 12.9295 34.8458 12.4361 29.3568C10.1542 30.5286 9.66079 32.7489 7.93392 34.3524C7.7489 34.4758 7.62555 34.5991 7.5022 34.5991C6.45374 34.5991 6.39207 30.3436 6.63877 29.7885C9.29075 22.8194 23.4141 17.1454 16.3216 9.55947C16.4449 9.55947 16.5683 9.55947 16.6916 9.62115C17.4934 9.74449 17.8634 9.80617 17.9868 9.80617C18.3568 9.80617 16.815 9.37445 15.5198 8.63436C14.8414 8.26432 14.2247 7.95595 13.6696 7.70925C14.348 7.15418 15.0264 6.59912 15.7665 6.10573C17 6.4141 18.2335 6.84581 19.2203 6.84581C19.4053 6.84581 19.652 6.84581 19.7753 6.78414C21.1322 6.47577 22.304 6.29075 23.3524 6.29075C25.2643 6.29075 26.8678 6.96916 28.9031 8.94273C30.7533 2.59031 35.7489 4.00881 40.3744 3.51542C40.6211 3.51542 40.9295 3.45374 41.2379 3.39207C42.7181 4.00881 44.1366 4.7489 45.4934 5.61233C45.2467 5.73568 45.0617 5.79736 44.9383 5.85903C42.7797 6.59912 41.6079 7.70925 41.7929 7.70925ZM38.4009 2.28194C38.1542 2.28194 37.8458 2.28194 37.5991 2.28194C34.207 2.40529 30.4449 2.46696 28.4097 6.72247C26.7445 5.48899 25.2026 4.93392 23.3524 4.93392C22.1189 4.93392 20.7621 5.18062 19.5286 5.48899C19.467 5.48899 19.3436 5.48899 19.2203 5.48899C18.6652 5.48899 17.9251 5.30396 17.185 5.11894C21.1938 2.65198 25.9427 1.23348 31 1.23348C33.5903 1.23348 36.0573 1.60352 38.4009 2.28194ZM10.7093 7.09251C11.326 5.98238 12.2511 5.61233 13.3612 5.61233C13.6079 5.61233 13.8546 5.61233 14.163 5.67401C13.5463 6.1674 12.9295 6.59912 12.3744 7.15418C12.0044 7.09251 11.696 7.03084 11.4493 7.03084C11.141 6.96916 10.9559 7.03084 10.7093 7.09251ZM31 54.7048C16.1982 54.7048 4.23348 42.7401 4.23348 28C4.23348 20.3524 7.44053 13.3833 12.6211 8.51101C13.2379 8.75771 13.9163 9.06608 14.5947 9.43612L15.3965 10.2996C18.9736 14.1233 16.2599 17.1454 11.4493 21.7709C8.98238 24.1145 6.51542 26.5815 5.46696 29.2952C5.15859 30.1586 5.15859 33.674 6.0837 35.0308C6.57709 35.7092 7.19383 35.8326 7.5022 35.8326C7.93392 35.8326 8.36564 35.6476 8.79736 35.2775C9.59912 34.5374 10.0925 33.7357 10.6476 32.9956C10.9559 32.5639 11.2026 32.1938 11.4493 31.8238C12.0044 36.2643 13.1145 40.7665 16.63 44.7753C16.815 45.022 17.0617 45.2687 17.3084 45.5771C17.0617 45.9471 16.815 46.5022 16.7533 47.304L16.63 48.7225L18.0485 48.6608C21.5022 48.4758 25.7577 48.4141 30.7533 48.4141C35.1322 48.4141 38.9559 48.4758 41.2996 48.5374C42.2863 48.5374 42.9648 48.5374 43.2731 48.5374H45.4934L44.3216 46.6872C44.0749 46.2555 43.5198 45.7621 42.9031 45.3304C44.63 43.2952 45.4934 41.0132 45.7401 40.2114C45.7401 40.1498 45.8018 40.0881 45.8018 40.0264L46.1101 39.2247L46.0485 39.163C46.1101 38.978 46.1718 38.7313 46.2335 38.4846C46.5418 37.4361 46.8502 36.3877 47.1586 35.4626C47.3436 35.7092 47.467 35.8943 47.652 36.141C49.0705 38.1145 49.8106 39.1013 50.7974 39.2247C50.859 39.2247 50.9824 39.2247 51.0441 39.2247C51.7225 39.2247 52.3392 38.9163 52.7092 38.3612C53.8194 36.696 52.8943 32.2555 49.9956 25.1013C49.1938 23.1894 45.6784 15.8502 42.2247 13.3216C42.5947 12.5198 43.2731 11.348 43.7048 10.4846C44.815 8.51101 45.3084 7.5859 45.37 6.96916C45.4934 6.90749 45.7401 6.84581 45.9868 6.72247C46.1718 6.66079 46.4185 6.53744 46.6652 6.4141C53.326 11.2863 57.7048 19.1806 57.7048 28.0617C57.7048 42.7401 45.7401 54.7048 31 54.7048Z" fill="white"/>
<g filter="url(#filter0_d)">
<path fill-rule="evenodd" clip-rule="evenodd" d="M57.7053 28.0009C57.7053 13.1991 45.7405 1.23438 31.0004 1.23438C16.1986 1.23438 4.23389 13.1991 4.23389 28.0009C4.23389 42.8027 16.1986 54.7674 31.0004 54.7674C45.7405 54.7057 57.7053 42.741 57.7053 28.0009Z" fill="#FF8C38"/>
</g>
<path fill-rule="evenodd" clip-rule="evenodd" d="M13.6696 48.3524C18.3568 52.2996 24.4009 54.7049 31 54.7049C37.5991 54.7049 43.6432 52.2996 48.3304 48.3524C42.7798 46.9339 36.9824 46.1938 31 46.1938C25.0176 46.1938 19.2203 46.9339 13.6696 48.3524Z" fill="#171717"/>
<path fill-rule="evenodd" clip-rule="evenodd" d="M43.2115 47.2423C41.423 47.2423 27.9781 46.8723 17.9869 47.3657C18.2336 44.8371 20.1455 46.8106 17.5552 43.9119C13.793 39.7181 12.9296 34.8459 12.4362 29.3569C10.1543 30.5287 9.66088 32.749 7.93401 34.3525C6.45383 35.7093 6.39216 30.4053 6.63885 29.7269C9.29084 22.7578 23.4142 17.0838 16.3217 9.49785C16.445 9.49785 16.5684 9.49785 16.6917 9.55953C19.467 10.0529 17.3701 9.6212 15.5199 8.57274C13.3613 7.40094 11.8195 6.72252 10.7093 7.09257C12.4979 3.76217 17.3085 7.21592 19.7754 6.66085C23.7226 5.79741 25.6961 5.79741 28.9032 8.81944C30.7534 2.46702 35.749 3.88552 40.3745 3.39213C42.8415 3.14543 50.8591 0.678471 52.1543 3.57715C50.7974 3.14543 46.1102 5.24235 44.9384 5.73574C42.0397 6.90755 40.9296 8.4494 42.4714 7.33926C42.9648 6.96922 43.5199 6.66085 44.1983 6.59918C44.3833 7.03089 40.9913 12.3965 40.6829 13.7534C43.7666 14.9868 47.7754 22.8811 48.8239 25.4714C50.9825 30.7137 53.3877 38.1763 50.8591 37.9296C49.9957 37.8679 47.7137 33.6741 46.5419 32.8723C46.2952 33.9824 44.63 39.4714 44.63 39.4714C44.445 40.0265 43.5199 42.9868 41.238 45.2071C41.0529 45.3305 41.0529 45.7005 41.238 45.7622C42.1014 46.0705 42.9648 46.8106 43.2115 47.2423ZM41.9164 41.63C47.2203 32.8723 48.2688 11.0397 33.7754 16.4053C29.89 17.8238 30.1366 22.8194 28.7181 25.8415C26.8679 29.9736 26.1895 33.304 27.2996 37.7445C27.3613 38.1146 28.4714 40.6432 29.5199 42.4318C31.3701 45.5771 38.6477 46.9956 41.9164 41.63ZM26.9913 40.8899C26.8679 41.3216 26.6212 41.7534 26.4362 41.815C25.0794 42.5551 23.9076 38.8547 23.5992 38.1763C20.9472 32.749 22.2424 26.4582 24.4626 21.1542C25.0794 19.6741 27.0529 17.5155 25.1411 16.2203C24.8944 16.0353 21.1322 15.6036 21.2556 15.3569C19.7754 14.3084 16.9384 19.9824 15.9516 21.1542C11.8811 25.7181 14.2864 38.4846 18.3569 42.3701C20.5772 44.467 28.7181 46.4406 27.238 41.0749C27.1146 40.7049 27.1763 40.3965 26.9913 40.8899Z" fill="#171717"/>
<path fill-rule="evenodd" clip-rule="evenodd" d="M23.6616 8.75752C23.6616 7.95576 22.983 7.27734 22.181 7.27734C21.379 7.27734 20.7004 7.95576 20.7004 8.75752C20.7004 9.55928 21.379 10.2377 22.181 10.2377C22.983 10.2377 23.6616 9.55928 23.6616 8.75752Z" fill="white"/>
<path fill-rule="evenodd" clip-rule="evenodd" d="M37.2916 6.53731C37.2916 5.73554 36.613 5.05713 35.811 5.05713C35.009 5.05713 34.3304 5.73554 34.3304 6.53731C34.3304 7.33907 35.009 8.01748 35.811 8.01748C36.613 8.01748 37.2916 7.33907 37.2916 6.53731Z" fill="white"/>
<path fill-rule="evenodd" clip-rule="evenodd" d="M41.9163 41.6301C47.2202 32.8724 48.2687 11.0398 33.7753 16.4054C29.8898 17.8239 30.1365 22.8195 28.718 25.8415C26.8678 29.9737 26.1894 33.3041 27.2995 37.7446C27.3612 38.1146 28.4713 40.6433 29.5198 42.4318C31.37 45.5772 38.6475 46.9957 41.9163 41.6301Z" fill="white"/>
<path fill-rule="evenodd" clip-rule="evenodd" d="M26.9912 40.8896C26.8678 41.3214 26.6211 41.7531 26.4361 41.8147C25.0793 42.5548 23.9075 38.8544 23.5991 38.176C20.9471 32.7487 22.2423 26.4579 24.4625 21.1539C25.0793 19.6738 27.0528 17.5152 25.1409 16.22C24.8942 16.035 21.1321 15.6033 21.2555 15.3566C19.7753 14.3081 16.9383 19.9821 15.9515 21.1539C11.881 25.7178 14.2863 38.4843 18.3568 42.3698C20.5771 44.4667 28.718 46.4403 27.2379 41.0747C27.1145 40.7046 27.1762 40.3962 26.9912 40.8896Z" fill="white"/>
<defs>
<filter id="filter0_d" x="0.233887" y="1.23438" width="61.4714" height="61.533" filterUnits="userSpaceOnUse" color-interpolation-filters="sRGB">
<feFlood flood-opacity="0" result="BackgroundImageFix"/>
<feColorMatrix in="SourceAlpha" type="matrix" values="0 0 0 0 0 0 0 0 0 0 0 0 0 0 0 0 0 0 127 0"/>
<feOffset dy="4"/>
<feGaussianBlur stdDeviation="2"/>
<feColorMatrix type="matrix" values="0 0 0 0 0 0 0 0 0 0 0 0 0 0 0 0 0 0 0.25 0"/>
<feBlend mode="normal" in2="BackgroundImageFix" result="effect1_dropShadow"/>
<feBlend mode="normal" in="SourceGraphic" in2="effect1_dropShadow" result="shape"/>
</filter>
</defs>
</svg>
