<svg xmlns="http://www.w3.org/2000/svg" width="255" height="100" viewBox="0 0 255 100" fill="none"><path d="M159.938 67.3635H179.713V63.015H166.6C168.398 55.8029 179.395 54.212 179.395 46.1514C179.395 41.8029 176.434 38.6211 170.301 38.6211C166.389 38.6211 163.11 39.7878 160.784 40.9544L162.159 44.9847C164.274 44.0302 166.6 43.0756 169.455 43.0756C171.782 43.0756 173.897 44.0302 173.897 46.6817C174.002 52.6211 161.101 53.0453 159.938 67.3635Z" fill="#171717"></path><path d="M219.262 61.3182C213.234 61.3182 208.264 56.3333 208.264 50.2879C208.264 44.2424 213.234 39.2576 219.262 39.2576C225.29 39.2576 230.26 44.2424 230.26 50.2879C230.26 56.3333 225.29 61.3182 219.262 61.3182ZM219.262 41.2727C214.292 41.2727 210.274 45.303 210.274 50.2879C210.274 55.2727 214.292 59.303 219.262 59.303C224.232 59.303 228.251 55.2727 228.251 50.2879C228.251 45.303 224.232 41.2727 219.262 41.2727Z" fill="#171717"></path><path d="M225.501 50.2879H220.002V44.7727H218.522V51.7727H225.501V50.2879Z" fill="#171717"></path><path d="M47 34.697H56.5172C63.4966 34.697 66.669 38.7273 66.669 42.9697C66.669 45.8334 65.2943 48.3788 62.7563 49.7576V49.8637C66.5632 50.8182 68.8897 53.894 68.8897 57.7122C68.8897 62.8031 65.0828 67.3637 57.469 67.3637H47V34.697ZM55.777 48.3788C59.0552 48.3788 60.8529 46.5758 60.8529 44.0304C60.8529 41.591 59.2667 39.6819 55.777 39.6819H53.0276V48.3788H55.777ZM56.7287 62.4849C60.6414 62.4849 62.8621 61.0001 62.8621 57.7122C62.8621 54.9546 60.7471 53.2576 57.469 53.2576H53.0276V62.4849H56.7287Z" fill="#171717"></path><path d="M73.331 36.6061C73.331 34.5909 74.9172 33 76.9264 33C78.9356 33 80.6276 34.4848 80.6276 36.6061C80.6276 38.5152 79.0414 40.1061 76.9264 40.1061C74.8115 40.1061 73.331 38.6212 73.331 36.6061ZM73.9655 43.9242H79.8873V67.3636H73.9655V43.9242Z" fill="#171717"></path><path d="M87.8184 61.6363V48.5908H83.5885V43.9242H87.8184V38.5151L93.7402 36.8181V43.9242H100.825L99.3448 48.5908H93.7402V60.1514C93.7402 62.3787 94.4805 63.1211 96.0667 63.1211C97.4414 63.1211 98.7103 62.5908 99.6621 61.9545L101.46 65.9848C99.7678 67.1515 96.9126 67.7878 94.5862 67.7878C90.3563 67.8939 87.8184 65.5605 87.8184 61.6363Z" fill="#171717"></path><path d="M104.632 43.9243H109.602L110.237 46.5759C112.352 44.4546 114.255 43.394 116.687 43.394C117.745 43.394 119.014 43.7122 119.966 44.3486L117.851 49.3334C116.793 48.6971 115.841 48.591 115.207 48.591C113.621 48.591 112.352 49.2274 110.448 50.9243V67.4698H104.526V43.9243H104.632Z" fill="#171717"></path><path d="M122.292 36.6061C122.292 34.5909 123.878 33 125.887 33C127.897 33 129.483 34.5909 129.483 36.6061C129.483 38.5152 127.897 40.1061 125.782 40.1061C123.667 40.1061 122.292 38.6212 122.292 36.6061ZM122.926 43.9242H128.848V67.3636H122.926V43.9242Z" fill="#171717"></path><path d="M140.798 55.591L132.338 43.9243H138.471L143.97 51.5607L149.575 43.9243H155.708L147.143 55.591L155.814 67.3637H149.68L144.076 59.5152L138.366 67.3637H132.232L140.798 55.591Z" fill="#171717"></path><path d="M198.113 56.2272V38.6211H194.411L180.347 56.9696V60.4696H193.037V67.4696H198.113V60.4696H202.343V56.2272H198.113ZM193.037 52.0908V56.1211H189.653C188.595 56.1211 186.692 56.2272 186.057 56.2272L193.248 46.4696C193.248 47.3181 193.037 49.8635 193.037 52.0908Z" fill="#171717"></path></svg>