<svg width="255" height="100" viewBox="0 0 255 100" fill="none" xmlns="http://www.w3.org/2000/svg">
<path d="M48.7497 17H207.25C209.288 17 210.946 18.6494 210.946 20.6774V79.3226C210.946 81.3506 209.288 83 207.25 83H48.7497C46.7116 83 45.054 81.3506 45.054 79.3226V20.6774C45.054 18.6494 46.7116 17 48.7497 17Z" fill="#171717"/>
<path d="M118.934 53.3787C118.934 54.6325 118.79 55.7686 118.511 56.8036C118.232 57.8387 117.809 58.7307 117.268 59.4712C116.718 60.2118 116.05 60.7924 115.255 61.2132C114.46 61.6255 113.564 61.8359 112.549 61.8359C111.323 61.8359 110.274 61.6087 109.403 61.1459C108.532 60.683 107.822 60.0519 107.263 59.2524L107.187 61.5245H105.454V37.9116H107.297V47.3029C107.855 46.4446 108.557 45.7714 109.412 45.2917C110.266 44.812 111.297 44.5764 112.515 44.5764C113.539 44.5764 114.443 44.7784 115.238 45.1739C116.033 45.5694 116.701 46.1416 117.251 46.8822C117.801 47.6227 118.215 48.5063 118.503 49.5498C118.79 50.5933 118.926 51.7545 118.926 53.0505L118.934 53.3787ZM117.082 53.0589C117.082 52.0996 116.989 51.1907 116.803 50.3576C116.617 49.5161 116.329 48.7924 115.932 48.1781C115.534 47.5638 115.027 47.0757 114.41 46.7223C113.792 46.3689 113.048 46.1921 112.185 46.1921C111.484 46.1921 110.866 46.2847 110.333 46.4782C109.801 46.6718 109.335 46.9242 108.946 47.2356C108.557 47.5554 108.228 47.9172 107.957 48.3296C107.686 48.7419 107.475 49.1627 107.306 49.6087V57.115C107.5 57.5526 107.746 57.9649 108.042 58.352C108.338 58.7391 108.684 59.0673 109.082 59.3534C109.479 59.6395 109.944 59.8583 110.46 60.0182C110.985 60.1781 111.568 60.2539 112.211 60.2539C113.048 60.2539 113.767 60.0771 114.384 59.7321C114.993 59.3871 115.501 58.899 115.907 58.2847C116.304 57.6704 116.608 56.9467 116.794 56.1052C116.989 55.2721 117.082 54.3632 117.082 53.3871V53.0589Z" fill="#F5F5F2"/>
<path d="M124.643 61.5246H122.791V44.8879H124.643V61.5246ZM122.461 40.0828C122.461 39.7378 122.571 39.4433 122.799 39.1993C123.027 38.9552 123.332 38.8374 123.729 38.8374C124.118 38.8374 124.431 38.9552 124.668 39.1993C124.896 39.4433 125.015 39.7378 125.015 40.0828C125.015 40.4279 124.896 40.7224 124.668 40.958C124.44 41.1936 124.127 41.3115 123.729 41.3115C123.34 41.3115 123.027 41.1936 122.799 40.958C122.579 40.7224 122.461 40.4279 122.461 40.0828Z" fill="#F5F5F2"/>
<path d="M131.29 37.9116H129.438V61.5245H131.29V37.9116Z" fill="#F5F5F2"/>
<path d="M137.937 37.9116H136.085V61.5245H137.937V37.9116Z" fill="#F5F5F2"/>
<path d="M155.976 53.3787C155.976 54.6325 155.832 55.7686 155.553 56.8036C155.274 57.8387 154.851 58.7307 154.31 59.4712C153.768 60.2118 153.092 60.7924 152.305 61.2132C151.51 61.6255 150.614 61.8359 149.599 61.8359C148.373 61.8359 147.324 61.6087 146.453 61.1459C145.582 60.683 144.872 60.0519 144.313 59.2524L144.237 61.5245H142.504V37.9116H144.339V47.3029C144.897 46.4446 145.599 45.7714 146.453 45.2917C147.307 44.812 148.347 44.5764 149.557 44.5764C150.58 44.5764 151.485 44.7784 152.28 45.1739C153.075 45.5694 153.743 46.1416 154.293 46.8822C154.842 47.6227 155.265 48.5063 155.544 49.5498C155.823 50.5933 155.967 51.7545 155.967 53.0505L155.976 53.3787ZM154.124 53.0589C154.124 52.0996 154.031 51.1907 153.844 50.3576C153.658 49.5161 153.371 48.7924 152.973 48.1781C152.576 47.5638 152.068 47.0757 151.451 46.7223C150.834 46.3689 150.09 46.1921 149.227 46.1921C148.525 46.1921 147.908 46.2847 147.375 46.4782C146.842 46.6718 146.377 46.9242 145.988 47.2356C145.599 47.5554 145.269 47.9172 144.998 48.3296C144.728 48.7419 144.516 49.1627 144.347 49.6087V57.115C144.542 57.5526 144.787 57.9649 145.083 58.352C145.379 58.7391 145.726 59.0673 146.123 59.3534C146.521 59.6395 146.986 59.8583 147.502 60.0182C148.018 60.1781 148.61 60.2539 149.252 60.2539C150.09 60.2539 150.808 60.0771 151.426 59.7321C152.035 59.3871 152.542 58.899 152.948 58.2847C153.345 57.6704 153.65 56.9467 153.836 56.1052C154.031 55.2721 154.124 54.3632 154.124 53.3871V53.0589Z" fill="#F5F5F2"/>
<path d="M166.082 61.836C164.991 61.836 163.984 61.634 163.071 61.2301C162.158 60.8262 161.363 60.2624 160.703 59.5387C160.035 58.815 159.519 57.9566 159.147 56.9636C158.775 55.9707 158.589 54.8767 158.589 53.6902V53.0254C158.589 51.7463 158.783 50.585 159.172 49.5415C159.561 48.498 160.077 47.6144 160.737 46.8823C161.397 46.1502 162.158 45.5864 163.02 45.1824C163.883 44.7869 164.788 44.585 165.743 44.585C166.801 44.585 167.748 44.7785 168.568 45.1572C169.388 45.5359 170.082 46.066 170.648 46.7392C171.215 47.4125 171.638 48.2203 171.925 49.1544C172.213 50.0885 172.357 51.1067 172.357 52.2175V53.3367H160.432V53.6902C160.432 54.599 160.568 55.4573 160.847 56.2652C161.126 57.073 161.515 57.7715 162.022 58.3606C162.53 58.958 163.13 59.4209 163.832 59.7659C164.534 60.1109 165.312 60.2792 166.166 60.2792C167.156 60.2792 168.027 60.1025 168.788 59.7406C169.549 59.3788 170.234 58.8066 170.851 58.0155L172.01 58.8907C171.731 59.2946 171.41 59.6733 171.046 60.0268C170.682 60.3886 170.259 60.7 169.769 60.9608C169.287 61.2301 168.737 61.4405 168.128 61.592C167.519 61.7603 166.834 61.836 166.082 61.836ZM165.743 46.1502C165.042 46.1502 164.39 46.2848 163.798 46.5457C163.198 46.815 162.674 47.1937 162.217 47.6817C161.76 48.1782 161.38 48.7673 161.092 49.4573C160.796 50.1474 160.602 50.9132 160.5 51.7547H170.53V51.5527C170.513 50.8542 170.395 50.181 170.192 49.5331C169.989 48.8851 169.684 48.3045 169.287 47.7995C168.889 47.2946 168.399 46.8991 167.815 46.5962C167.215 46.3017 166.53 46.1502 165.743 46.1502Z" fill="#F5F5F2"/>
<path d="M181.989 61.836C180.898 61.836 179.892 61.634 178.979 61.2301C178.065 60.8262 177.27 60.2624 176.611 59.5387C175.943 58.815 175.427 57.9566 175.055 56.9636C174.682 55.9707 174.496 54.8767 174.496 53.6902V53.0254C174.496 51.7463 174.691 50.585 175.08 49.5415C175.469 48.498 175.985 47.6144 176.644 46.8823C177.304 46.1502 178.065 45.5864 178.928 45.1824C179.79 44.7869 180.695 44.585 181.651 44.585C182.708 44.585 183.655 44.7785 184.476 45.1572C185.296 45.5359 185.989 46.066 186.556 46.7392C187.123 47.4125 187.546 48.2203 187.833 49.1544C188.121 50.0885 188.264 51.1067 188.264 52.2175V53.3367H176.34V53.6902C176.34 54.599 176.475 55.4573 176.754 56.2652C177.033 57.073 177.423 57.7715 177.93 58.3606C178.437 58.958 179.038 59.4209 179.74 59.7659C180.442 60.1109 181.22 60.2792 182.074 60.2792C183.063 60.2792 183.934 60.1025 184.695 59.7406C185.457 59.3788 186.142 58.8066 186.759 58.0155L187.918 58.8907C187.639 59.2946 187.317 59.6733 186.954 60.0268C186.59 60.3886 186.167 60.7 185.677 60.9608C185.194 61.2301 184.645 61.4405 184.036 61.592C183.418 61.7603 182.742 61.836 181.989 61.836ZM181.651 46.1502C180.949 46.1502 180.298 46.2848 179.706 46.5457C179.105 46.815 178.581 47.1937 178.124 47.6817C177.668 48.1782 177.287 48.7673 177 49.4573C176.704 50.1474 176.509 50.9132 176.408 51.7547H186.438V51.5527C186.421 50.8542 186.302 50.181 186.099 49.5331C185.896 48.8851 185.592 48.3045 185.194 47.7995C184.797 47.2946 184.306 46.8991 183.723 46.5962C183.114 46.3017 182.429 46.1502 181.651 46.1502Z" fill="#F5F5F2"/>
<path d="M94.8487 54.094C94.6373 53.5049 94.3413 52.9664 93.9607 52.4867C93.5802 52.007 93.115 51.5947 92.5738 51.2581C92.0326 50.9215 91.4321 50.6775 90.764 50.5344C91.3222 50.3493 91.8296 50.0968 92.2693 49.7854C92.7091 49.4657 93.0897 49.0954 93.4026 48.6746C93.7155 48.2539 93.9523 47.7826 94.113 47.2693C94.2736 46.756 94.3582 46.209 94.3582 45.6284C94.3582 44.6017 94.1891 43.7181 93.8423 42.9692C93.5041 42.2286 93.0051 41.6059 92.3708 41.1263C91.7281 40.6466 90.9501 40.2847 90.0367 40.0575C89.1234 39.8219 88.0831 39.7041 86.933 39.7041H75.4146C74.256 39.7041 73.2242 39.8219 72.3109 40.0575C71.3975 40.2932 70.6195 40.6466 69.9768 41.1263C69.334 41.6059 68.8435 42.2202 68.5053 42.9692C68.1585 43.7181 67.9894 44.6017 67.9894 45.6284C67.9894 46.209 68.074 46.756 68.2346 47.2693C68.3953 47.7826 68.6321 48.2539 68.945 48.6746C69.2579 49.0954 69.6385 49.4657 70.0783 49.7854C70.518 50.1052 71.0254 50.3493 71.5836 50.5344C70.9155 50.6775 70.3151 50.9215 69.7738 51.2581C69.2326 51.5947 68.7674 52.007 68.3869 52.4867C67.9978 52.9664 67.7018 53.5049 67.4989 54.094C67.2875 54.6831 67.186 55.3058 67.186 55.9538C67.186 56.9888 67.3636 57.9061 67.7103 58.6971C68.057 59.4881 68.556 60.1529 69.1903 60.6915C69.833 61.2301 70.5941 61.634 71.4906 61.9117C72.387 62.1894 73.3765 62.324 74.459 62.324H87.8971C88.9796 62.324 89.969 62.1894 90.8655 61.9117C91.7619 61.634 92.5315 61.2301 93.1658 60.6915C93.8085 60.1529 94.299 59.4881 94.6458 58.6971C94.9925 57.9061 95.1701 56.9888 95.1701 55.9538C95.1616 55.3058 95.0601 54.6831 94.8487 54.094ZM80.2097 60.7083H74.4505C73.6217 60.7083 72.8691 60.5989 72.2094 60.3801C71.5498 60.1613 70.9832 59.85 70.5265 59.446C70.0613 59.0421 69.7062 58.5456 69.4609 57.965C69.2156 57.3759 69.0972 56.7195 69.0972 55.9874C69.0972 55.3563 69.1987 54.7588 69.4102 54.2118C69.6216 53.6564 69.9345 53.1768 70.3658 52.7644C70.7971 52.3521 71.3383 52.0323 71.9895 51.8051C72.6407 51.5779 73.4103 51.4516 74.2898 51.4516H80.2097V60.7083ZM80.2097 49.8528H74.9664C73.3596 49.8191 72.1248 49.4488 71.2453 48.7251C70.3658 48.0099 69.926 46.958 69.926 45.5779C69.926 44.1305 70.3827 43.0617 71.2876 42.3717C72.201 41.6817 73.571 41.3366 75.4146 41.3366H80.2097V49.8528ZM82.1294 41.3451H86.9161C88.7597 41.3451 90.1297 41.6901 91.0431 42.3801C91.9564 43.0702 92.4047 44.1389 92.4047 45.5863C92.4047 46.9664 91.9649 48.0099 91.0854 48.7336C90.2058 49.4573 88.9627 49.8275 87.3643 49.8612H82.121V41.3451H82.1294ZM92.8782 57.965C92.633 58.5456 92.2778 59.0421 91.8127 59.446C91.3475 59.85 90.7894 60.1613 90.1297 60.3801C89.4701 60.5989 88.7259 60.7083 87.8886 60.7083H82.1294V51.4516H88.0493C88.9373 51.4516 89.6984 51.5695 90.3496 51.8051C91.0008 52.0407 91.542 52.3605 91.9733 52.7644C92.4047 53.1768 92.726 53.6564 92.929 54.2118C93.1404 54.7672 93.2419 55.3563 93.2419 55.9874C93.2419 56.7195 93.115 57.3843 92.8782 57.965Z" fill="#F5F5F2"/>
</svg>
