<svg width="255" height="100" viewBox="0 0 255 100" fill="none" xmlns="http://www.w3.org/2000/svg">
<path d="M230.515 78.2703C230.515 74.9633 230.515 71.6564 230.515 68.3282C226.038 68.3282 221.583 68.3282 217.086 68.3282C217.064 68.1374 217.043 67.989 217.043 67.8618C217.043 67.1199 217.043 66.3779 217.043 65.6148C217.043 65.3392 217.107 65.0848 217.255 64.8517C220.947 58.6617 224.638 52.493 228.329 46.303C228.478 46.0698 228.626 45.8578 228.733 45.6035C228.881 45.3067 229.072 45.2007 229.411 45.2007C230.918 45.2219 232.424 45.2007 233.93 45.2007C234.057 45.2007 234.206 45.2007 234.397 45.2007C234.439 46.3242 234.418 47.4265 234.418 48.5288C234.418 49.61 234.418 50.6911 234.418 51.7934C234.418 52.8957 234.418 53.998 234.418 55.1004C234.418 56.1815 234.418 57.2626 234.418 58.3649C234.418 59.4672 234.418 60.5696 234.418 61.6719C234.418 62.753 234.418 63.8341 234.418 64.8941C234.842 65 236.985 65.0424 237.855 64.9577C237.855 66.0812 237.855 67.2047 237.855 68.307C236.73 68.307 235.606 68.307 234.418 68.307C234.418 68.5826 234.418 68.7734 234.418 68.9854C234.418 71.8895 234.418 74.7725 234.418 77.6767C234.418 77.8887 234.397 78.0795 234.397 78.2915C233.103 78.2703 231.809 78.2703 230.515 78.2703ZM229.517 51.1151C226.823 55.6939 224.129 60.2728 221.392 64.9365C224.49 64.9365 227.481 64.9365 230.493 64.9365C230.493 60.3152 230.493 55.7151 230.493 51.1151C230.154 51.1151 229.836 51.1151 229.517 51.1151Z" fill="#171717"/>
<path d="M64.53 55.5672C64.5936 55.2704 64.6997 54.9948 64.7421 54.698C64.9543 52.8962 65.4634 51.1791 66.4817 49.6528C67.6485 47.8933 69.1548 46.5366 71.1914 45.8795C73.4614 45.1587 75.7314 45.1799 77.8953 46.1974C80.4623 47.3846 81.9473 49.462 82.5413 52.1966C82.9656 54.1257 83.0293 56.0971 82.9868 58.0686C82.9868 58.111 82.9656 58.1746 82.9656 58.217C82.9444 58.2382 82.9444 58.2594 82.9232 58.2594C82.902 58.2806 82.902 58.2806 82.8808 58.2806C82.8596 58.2806 82.8596 58.3018 82.8383 58.3018C82.7959 58.3018 82.7323 58.323 82.6898 58.323C78.2772 58.323 73.8645 58.3442 69.4518 58.3442C69.4306 58.3442 69.4094 58.3442 69.3669 58.3654C69.3457 58.4714 69.3245 58.5773 69.3245 58.6833C69.3033 59.7009 69.3669 60.7184 69.6003 61.7147C70.0882 63.9194 71.9551 65.5516 74.2039 65.8908C76.4951 66.2512 78.5317 65.6788 80.3774 64.3009C80.5471 64.1737 80.7169 64.0254 80.9502 63.8558C81.4806 64.6825 81.9898 65.488 82.5201 66.3148C82.3504 66.4632 82.2231 66.5692 82.0746 66.6964C79.6349 68.6466 76.8346 69.3886 73.7584 69.1554C71.1066 68.9646 68.9002 67.8835 67.1818 65.8272C66.1847 64.6401 65.5483 63.2622 65.1664 61.7571C64.9755 60.994 64.8694 60.1884 64.7209 59.4253C64.6785 59.2345 64.5936 59.0437 64.5512 58.8741C64.53 57.7506 64.53 56.6695 64.53 55.5672ZM69.3245 55.1644C69.961 55.2916 78.2772 55.2492 78.659 55.122C78.6378 54.6556 78.6166 54.1893 78.553 53.7229C78.4257 52.5782 78.1074 51.4759 77.471 50.4795C75.6677 47.7449 71.4248 48.0629 70.1519 50.9459C70.067 51.1367 69.961 51.3487 69.8973 51.5607C69.473 52.6842 69.3457 53.8925 69.3245 55.1644Z" fill="#171717"/>
<path d="M93.276 55.0795C93.2548 55.8426 93.276 56.5846 93.276 57.3477C93.276 58.0896 93.276 58.8316 93.276 59.5947C93.276 60.3579 93.276 61.121 93.276 61.8842C93.276 62.6261 93.276 63.3681 93.276 64.1312C93.276 64.8944 93.276 65.6575 93.276 66.4206C93.276 67.1626 93.276 67.9045 93.276 68.6677C91.8334 68.6677 90.4544 68.6677 89.0331 68.6677C89.0331 58.3652 89.0331 48.084 89.0331 37.7603C89.2028 37.7391 89.3513 37.7179 89.4998 37.7179C92.2577 37.7179 94.9944 37.6967 97.7523 37.7179C98.9828 37.7179 100.234 37.7815 101.444 38.0995C104.69 38.9474 106.747 41.0673 107.554 44.2682C108.063 46.3033 107.872 48.3595 106.981 50.2886C106.09 52.1965 104.583 53.4684 102.504 53.9559C101.21 54.2739 99.8738 54.4647 98.5373 54.5071C98.4312 54.5071 98.3039 54.5283 98.1554 54.5495C101.953 59.1708 105.602 63.8768 109.314 68.6253C109.081 68.6465 108.933 68.6677 108.784 68.6677C107.363 68.6677 105.941 68.6465 104.499 68.6889C104.138 68.6889 103.947 68.5617 103.756 68.2861C100.956 64.4492 98.113 60.6547 95.1217 56.9661C94.6974 56.4574 94.2731 55.9486 93.8276 55.461C93.7003 55.3126 93.5518 55.1854 93.4033 55.0583C93.3609 55.0583 93.3184 55.0583 93.276 55.0795ZM93.2972 52.0269C94.4853 52.0269 95.6308 52.0481 96.7552 52.0269C97.5402 52.0057 98.3251 51.9633 99.0676 51.8149C101.21 51.4121 102.589 50.1614 103.056 47.9992C103.183 47.3844 103.205 46.7273 103.205 46.0913C103.205 44.1834 101.974 42.5088 100.171 41.8728C99.1949 41.5336 98.1554 41.3852 97.1371 41.364C95.9915 41.3429 94.8247 41.364 93.6791 41.364C93.5518 41.364 93.4245 41.3853 93.2972 41.4064C93.2972 44.9254 93.2972 48.4443 93.2972 52.0269Z" fill="#171717"/>
<path d="M155.626 68.6467C155.626 57.2631 155.626 45.9219 155.626 34.5596C156.963 34.5596 158.278 34.5596 159.678 34.5596C159.721 39.3292 159.784 44.0777 159.7 48.9321C159.933 48.7413 160.081 48.6142 160.23 48.487C161.291 47.6178 162.394 46.7911 163.688 46.2611C165.661 45.4556 167.676 45.3496 169.692 46.1127C170.349 46.3671 170.943 46.7275 171.453 47.1939C172.407 48.0418 172.789 49.1653 172.959 50.3948C173.044 51.0732 173.065 51.7515 173.065 52.4299C173.065 57.6235 173.065 62.7959 173.065 67.9896C173.065 68.2015 173.065 68.3923 173.065 68.6679C171.707 68.7315 170.392 68.6891 168.992 68.7103C168.992 68.4559 168.992 68.2439 168.992 68.0532C168.992 63.1139 168.992 58.1959 168.992 53.2566C168.992 52.6419 168.928 52.0271 168.822 51.4335C168.546 50.0768 167.782 49.4409 166.403 49.2925C165.215 49.1653 164.112 49.4409 163.052 49.9497C161.948 50.5008 160.994 51.2428 160.145 52.1331C159.891 52.3875 159.806 52.6631 159.806 53.0446C159.827 58.0475 159.806 63.0503 159.806 68.0532C159.806 68.2439 159.806 68.4559 159.806 68.6891C158.405 68.6467 157.048 68.6467 155.626 68.6467Z" fill="#171717"/>
<path d="M130.784 58.3019C126.244 58.3019 121.746 58.3019 117.164 58.3019C117.164 58.6411 117.143 58.9379 117.164 59.2347C117.249 60.0402 117.291 60.867 117.44 61.6513C117.885 63.9195 119.795 65.5306 122.065 65.8698C124.313 66.209 126.329 65.6578 128.153 64.3223C128.344 64.1739 128.535 64.0255 128.726 63.8983C128.726 63.8983 128.747 63.8983 128.832 63.8983C129.32 64.6615 129.829 65.467 130.359 66.2938C130.19 66.4422 130.02 66.5905 129.85 66.7389C127.453 68.6256 124.716 69.3675 121.704 69.1556C117.482 68.88 114.385 66.3362 113.112 62.1601C112.582 60.4006 112.412 58.6199 112.454 56.7969C112.475 55.3766 112.603 53.9775 112.985 52.6208C113.663 50.2677 114.958 48.3175 116.994 46.9184C118.67 45.7525 120.558 45.3709 122.552 45.4769C124.419 45.5617 126.117 46.134 127.538 47.3847C129.002 48.6566 129.956 50.2465 130.359 52.1544C130.784 54.1259 130.847 56.1185 130.826 58.1112C130.847 58.1324 130.826 58.1748 130.784 58.3019ZM126.562 55.1858C126.52 54.6346 126.498 54.147 126.456 53.6595C126.307 52.43 125.968 51.2853 125.226 50.2677C123.401 47.7875 119.434 48.1267 118.119 50.7977C117.652 51.7516 117.376 52.7479 117.27 53.8079C117.228 54.253 117.228 54.7194 117.185 55.207C120.325 55.1858 123.401 55.1858 126.562 55.1858Z" fill="#171717"/>
<path d="M194.662 49.3985C196.91 47.4694 199.286 45.9007 202.235 45.4555C204.42 45.1164 206.605 45.1588 208.685 46.0279C210.594 46.8334 211.973 48.169 212.524 50.2252C212.949 51.8151 212.821 53.3838 212.1 54.8677C211.124 56.8603 209.703 58.4926 207.984 59.8493C206.415 61.0788 204.76 62.2235 203.147 63.3894C202.278 64.0254 201.365 64.6401 200.39 65.3185C201.578 65.4457 202.66 65.2549 203.741 65.2549C204.845 65.2549 205.948 65.2549 207.051 65.2549C208.154 65.2549 209.257 65.2549 210.36 65.2549C211.464 65.2549 212.567 65.2549 213.691 65.2549C213.691 66.3996 213.691 67.5231 213.691 68.6467C207.581 68.6467 201.514 68.6467 195.404 68.6467C195.383 68.4771 195.362 68.3499 195.362 68.2227C195.362 67.29 195.362 66.3572 195.362 65.4245C195.362 65.1277 195.468 64.9369 195.701 64.7673C198.141 62.9867 200.58 61.206 202.999 59.4041C204.038 58.641 205.036 57.8354 205.948 56.9027C206.563 56.2668 207.093 55.5672 207.475 54.7617C207.9 53.8713 208.027 52.9386 207.9 51.9847C207.751 50.6492 207.03 49.7376 205.757 49.2713C204.145 48.6777 202.532 48.7413 200.92 49.3349C199.52 49.8436 198.247 50.5644 197.059 51.4547C196.953 51.5395 196.847 51.6031 196.698 51.7091C196.019 50.9248 195.362 50.1828 194.662 49.3985Z" fill="#171717"/>
<path d="M184.712 37.9297C184.712 40.6855 184.712 43.3777 184.712 46.1335C186.536 46.1335 188.34 46.1335 190.164 46.1335C190.164 47.151 190.164 48.1049 190.164 49.1013C188.34 49.1013 186.515 49.1013 184.669 49.1013C184.648 49.3133 184.648 49.4828 184.648 49.6312C184.648 53.9981 184.648 58.3438 184.648 62.7107C184.648 63.3255 184.733 63.919 184.839 64.5338C185.009 65.4665 185.582 66.0177 186.536 66.166C187.427 66.3144 188.297 66.272 189.146 65.9965C189.315 65.9541 189.464 65.8905 189.676 65.8269C189.846 66.6748 189.994 67.5015 190.164 68.3283C189.528 68.6887 188.891 68.9006 188.212 69.049C186.706 69.4094 185.179 69.4094 183.693 68.9218C181.933 68.3495 180.766 67.0564 180.639 65.1061C180.596 64.6398 180.575 64.1946 180.575 63.7282C180.575 59.0646 180.575 54.4009 180.575 49.7372C180.575 49.5464 180.575 49.3345 180.575 49.0801C179.641 49.0801 178.793 49.0801 177.902 49.0801C177.902 48.0838 177.902 47.151 177.902 46.1547C178.772 46.1547 179.62 46.1547 180.532 46.1547C180.554 45.9427 180.554 45.7731 180.554 45.6247C180.554 43.9289 180.532 42.233 180.532 40.5371C180.532 40.2827 180.575 40.0919 180.829 39.9647C182.039 39.3288 183.227 38.6716 184.415 38.0357C184.478 38.0145 184.542 37.9933 184.712 37.9297Z" fill="#171717"/>
<path d="M150.492 47.8085C149.771 48.7412 149.071 49.674 148.371 50.6067C147.904 50.2675 147.501 49.9495 147.056 49.6528C145.91 48.8896 144.637 48.6988 143.3 48.9956C141.943 49.3136 140.988 50.1403 140.394 51.391C139.864 52.5146 139.63 53.7441 139.503 54.9736C139.355 56.5211 139.312 58.0898 139.418 59.6372C139.482 60.7396 139.652 61.8207 140.097 62.8594C140.288 63.2834 140.5 63.7285 140.776 64.1101C141.985 65.7848 143.958 66.3784 146.08 65.7C147.034 65.4032 147.84 64.8521 148.562 64.1525C148.71 64.0041 148.859 63.8345 149.071 63.6226C149.771 64.4917 150.429 65.3396 151.108 66.2088C149.898 67.3959 148.583 68.371 146.949 68.795C144.913 69.3037 142.855 69.2825 140.818 68.6466C139.206 68.1378 137.933 67.1839 136.957 65.806C135.918 64.3645 135.303 62.7322 135.027 60.9939C134.645 58.5985 134.624 56.2031 135.112 53.8077C135.748 50.7339 137.318 48.2537 140.033 46.6002C143.237 44.6499 147.586 45.1163 150.344 47.6601C150.386 47.6813 150.429 47.7237 150.492 47.8085Z" fill="#171717"/>
<path d="M54.2302 20.0424C54.6545 20.4876 55.1 20.9327 55.5455 21.3991C55.397 21.5051 55.2273 21.6323 55.0788 21.7383C53.4028 22.883 51.8329 24.1337 50.4964 25.66C49.3508 26.9743 48.4598 28.4582 48.0779 30.1965C47.7597 31.6592 47.9082 33.0795 48.3961 34.5422C48.5871 34.415 48.7356 34.3302 48.8841 34.2242C52.9361 31.3836 57.073 28.7126 61.4644 26.4443C64.0314 25.1088 66.6621 23.9005 69.4624 23.0526C70.8838 22.6286 72.3052 22.2894 73.8115 22.3106C74.257 22.3106 74.7237 22.3742 75.1692 22.5014C76.4421 22.8406 77.1422 23.7097 77.1634 25.0452C77.1846 25.7872 77.0149 26.4867 76.8027 27.1863C76.3572 28.5642 75.6996 29.8361 74.9571 31.0868C73.3659 33.7578 71.4354 36.1956 69.3988 38.5487C68.4653 39.6298 67.4895 40.6685 66.5348 41.7072C66.3863 41.8556 66.2378 42.004 66.0256 42.216C66.0044 41.898 66.1741 41.8132 66.2802 41.686C67.5107 40.2657 68.7836 38.8666 69.9928 37.4251C71.4778 35.6445 72.8356 33.7578 73.96 31.7228C74.554 30.6416 75.0843 29.5181 75.3601 28.3098C75.4874 27.7798 75.5723 27.2499 75.4874 26.6987C75.3389 25.7236 74.7873 25.1088 73.8539 24.8333C73.2174 24.6425 72.581 24.6001 71.9446 24.6637C70.311 24.7909 68.7623 25.2572 67.2137 25.8296C64.2648 26.9107 61.4644 28.331 58.7277 29.8785C55.4819 31.7228 52.3633 33.7578 49.3084 35.9201C49.2023 36.0048 49.0962 36.0896 48.9689 36.1956C49.0326 36.3652 49.0962 36.556 49.1811 36.7044C49.7963 37.9339 50.4115 39.1634 51.0692 40.3505C51.8329 41.7708 52.533 43.2123 53.0422 44.7386C53.9544 47.4944 53.3816 49.9534 51.642 52.1793C50.8995 53.1332 50.0085 53.9388 49.0326 54.6807C48.9053 54.7867 48.778 54.8927 48.6295 54.9987C48.9053 55.3591 49.1599 55.677 49.4144 56.0162C50.1145 56.9701 50.7085 57.9665 51.1116 59.0688C51.7056 60.7647 51.5784 62.3969 50.6873 63.9656C50.0085 65.1739 49.1174 66.2127 48.1203 67.1666C46.1898 69.0321 44.0259 70.5584 41.7983 72.0211C41.268 72.3602 40.7376 72.6994 40.186 73.0598C39.5284 72.4874 38.8919 71.9151 38.1918 71.3215C38.3615 71.1943 38.51 71.0671 38.6585 70.9611C40.1436 69.9224 41.6074 68.8201 42.8803 67.527C43.538 66.8486 44.1744 66.1279 44.7048 65.3435C46.1474 63.2237 46.3171 60.9767 45.2988 58.6236C44.6411 57.0973 43.7501 55.677 42.8591 54.2779C41.9468 52.8576 41.077 51.3949 40.3557 49.8686C39.5496 48.1092 39.0192 46.2861 39.0192 44.3358C39.0192 44.2723 39.0192 44.2087 38.998 44.1239C38.998 44.1027 38.9768 44.0603 38.9343 43.9967C38.8071 44.0815 38.701 44.1663 38.5949 44.2511C34.2459 48.0032 30.1302 51.9673 26.3752 56.3342C24.5083 58.4964 22.7687 60.7435 21.3685 63.2449C20.732 64.3472 20.2017 65.4919 19.8835 66.7426C19.735 67.3786 19.6289 68.0145 19.7774 68.6505C19.9895 69.6468 20.7321 70.2828 21.8564 70.4524C23.0232 70.622 24.1476 70.4524 25.2932 70.198C27.5844 69.668 29.7271 68.7565 31.8486 67.739C33.9913 66.7214 36.0703 65.5767 38.107 64.3472C38.2343 64.2624 38.3828 64.1988 38.51 64.1352C38.5313 64.1352 38.5737 64.1564 38.701 64.2624C38.6373 64.2836 38.5525 64.3048 38.4888 64.3472C34.755 66.6154 30.9151 68.7353 26.8207 70.304C25.2296 70.8975 23.6173 71.4063 21.9201 71.6395C21.0503 71.7455 20.1593 71.7879 19.2894 71.5971C17.9317 71.2791 17.2104 70.41 17.1467 69.0109C17.1255 68.1417 17.3165 67.3362 17.5923 66.5307C18.2075 64.75 19.1409 63.1389 20.1805 61.5914C21.9837 58.878 24.0628 56.3766 26.2479 53.96C30.1938 49.6355 34.458 45.629 38.9556 41.8556C39.2526 41.6012 39.4859 41.3257 39.6344 40.9441C40.2709 39.333 41.3953 38.0611 42.753 37.0012C43.0288 36.7892 43.3258 36.5772 43.6228 36.344C43.538 36.1956 43.4743 36.0472 43.4107 35.8989C42.7318 34.5634 42.2863 33.1431 42.1802 31.638C42.0317 29.5817 42.6257 27.801 43.9198 26.2112C45.0018 24.8756 46.3807 23.8793 47.8233 22.989C49.6054 21.9079 51.5147 21.0599 53.4665 20.2968C53.6574 20.212 53.8483 20.106 54.0393 20C54.1029 20.0424 54.1666 20.0424 54.2302 20.0424ZM46.9111 53.006C47.5051 52.5397 48.0355 52.0309 48.4598 51.4797C49.5842 50.0382 49.966 48.406 49.6478 46.6041C49.4781 45.629 49.0962 44.7174 48.6295 43.8695C47.7173 42.216 46.6141 40.7109 45.4685 39.2058C45.4473 39.1846 45.4049 39.1846 45.3836 39.1634C45.3624 39.1846 45.32 39.1846 45.2988 39.2058C45.2351 39.2694 45.1927 39.333 45.1291 39.3966C44.6199 40.075 44.238 40.8381 44.0259 41.6648C43.5592 43.5515 43.5167 45.4594 43.941 47.346C44.4502 49.4659 45.5109 51.2889 46.9111 53.006Z" fill="#171717"/>
</svg>
