<svg width="255" height="100" viewBox="0 0 255 100" fill="none" xmlns="http://www.w3.org/2000/svg">
<path d="M63.032 12.15C75.0041 12.15 84.8118 21.87 84.8118 33.885C84.8118 45.9 75.0041 55.5525 63.032 55.5525C51.0598 55.5525 41.2522 45.8325 41.2522 33.885C41.2522 21.9375 50.9922 12.15 63.032 12.15ZM63.032 0C44.2959 0 29.0771 15.1875 29.0771 33.885C29.0771 52.5825 44.2959 67.77 63.032 67.77C81.768 67.77 96.9868 52.5825 96.9868 33.885C96.9868 15.1875 81.768 0 63.032 0Z" fill="#171717"/>
<path d="M72.028 40.4323C68.9166 45.0223 64.5877 49.2073 58.7707 49.2073C52.6155 49.2073 49.0307 45.3598 49.0307 39.1498C49.0307 29.0923 56.471 19.2373 66.955 19.2373C70.4723 19.2373 75.207 20.6548 75.207 24.9073C75.207 32.5348 63.2349 35.0998 57.3503 36.5848C57.1474 37.8673 56.9445 39.1498 56.9445 40.4323C56.9445 43.0648 58.3649 45.4948 61.2734 45.4948C65.0611 45.4948 68.1049 41.8498 70.337 39.1498L72.028 40.4323ZM68.7813 24.0298C68.7813 22.4773 67.902 21.2623 66.2787 21.2623C61.4086 21.2623 58.906 30.7123 57.959 34.4248C62.4909 33.0748 68.7813 29.3623 68.7813 24.0298Z" fill="#171717"/>
<path d="M108.688 38.2047H103.074V34.2222H119.105V38.2047H113.423V55.0797H108.688V38.2047Z" fill="#171717"/>
<path d="M120.931 34.4919C122.419 34.2219 124.719 34.0869 127.222 34.0869C130.333 34.0869 132.497 34.5594 133.985 35.7069C135.203 36.7194 135.879 38.1369 135.879 40.0944C135.879 42.7269 133.985 44.5494 132.227 45.2244V45.2919C133.715 45.8994 134.459 47.2494 135 49.2069C135.676 51.5694 136.285 54.2694 136.691 55.0794H131.889C131.55 54.4719 131.077 52.7844 130.401 50.2194C129.859 47.6544 128.913 46.9119 127.019 46.9119H125.598V55.0794H120.931V34.4919ZM125.598 43.4694H127.424C129.792 43.4694 131.145 42.3219 131.145 40.4994C131.145 38.6094 129.859 37.5969 127.695 37.5969C126.545 37.5969 125.869 37.6644 125.531 37.7319V43.4694H125.598Z" fill="#171717"/>
<path d="M143.32 34.2222V46.2372C143.32 49.8147 144.672 51.6372 147.107 51.6372C149.61 51.6372 150.963 49.8822 150.963 46.2372V34.2222H155.698V45.8997C155.698 52.3122 152.451 55.4171 146.972 55.4171C141.696 55.4171 138.585 52.5147 138.585 45.8322V34.2222H143.32Z" fill="#171717"/>
<path d="M159.012 50.2198C160.297 50.8948 162.259 51.5023 164.22 51.5023C166.385 51.5023 167.534 50.6248 167.534 49.2748C167.534 47.9923 166.52 47.2498 164.017 46.3048C160.568 45.0898 158.268 43.1998 158.268 40.1623C158.268 36.5848 161.244 33.8848 166.182 33.8848C168.549 33.8848 170.24 34.3573 171.525 34.9648L170.443 38.7448C169.631 38.3398 168.143 37.7323 166.046 37.7323C164.017 37.7323 163.003 38.6773 163.003 39.7573C163.003 41.1073 164.152 41.6473 166.858 42.7273C170.511 44.0773 172.269 46.0348 172.269 48.9373C172.269 52.4472 169.564 55.4172 163.814 55.4172C161.447 55.4172 159.08 54.8097 157.93 54.1347L159.012 50.2198Z" fill="#171717"/>
<path d="M178.965 38.2047H173.351V34.2222H189.382V38.2047H183.7V55.0797H178.965V38.2047Z" fill="#171717"/>
<path d="M203.586 46.2372H195.875V51.1647H204.465V55.0122H191.141V34.2222H203.992V38.0697H195.875V42.3897H203.586V46.2372Z" fill="#171717"/>
<path d="M207.442 34.4919C209.2 34.2219 211.432 34.0869 213.8 34.0869C217.79 34.0869 220.361 34.8294 222.322 36.3144C224.487 37.9344 225.839 40.4994 225.839 44.1444C225.839 48.1269 224.351 50.8944 222.39 52.5819C220.158 54.4044 216.843 55.2819 212.785 55.2819C210.35 55.2819 208.591 55.1469 207.442 54.9444V34.4919ZM212.176 51.5019C212.582 51.5694 213.259 51.5694 213.8 51.5694C218.061 51.6369 220.834 49.2744 220.834 44.2794C220.902 39.9594 218.331 37.6644 214.273 37.6644C213.191 37.6644 212.514 37.7319 212.109 37.8669V51.5019H212.176Z" fill="#171717"/>
<path d="M104.901 75.802C106.186 76.477 108.08 77.0845 110.109 77.0845C112.273 77.0845 113.423 76.207 113.423 74.857C113.423 73.5745 112.409 72.832 109.974 71.9545C106.524 70.7395 104.292 68.8495 104.292 65.812C104.292 62.302 107.268 59.6021 112.138 59.6021C114.505 59.6021 116.196 60.0746 117.414 60.6146L116.399 64.3945C115.588 63.9895 114.099 63.382 112.07 63.382C110.041 63.382 109.027 64.327 109.027 65.407C109.027 66.757 110.176 67.297 112.882 68.3095C116.535 69.6595 118.293 71.5495 118.293 74.5195C118.293 77.962 115.588 80.932 109.906 80.932C107.539 80.932 105.171 80.3245 104.021 79.6495L104.901 75.802Z" fill="#171717"/>
<path d="M125.463 59.8721V67.8371H133.174V59.8721H137.841V80.5946H133.174V71.9546H125.463V80.5946H120.728V59.8721H125.463Z" fill="#171717"/>
<path d="M160.568 70.0648C160.568 76.8823 156.442 80.9998 150.354 80.9998C144.199 80.9998 140.614 76.3423 140.614 70.4698C140.614 64.2598 144.605 59.6023 150.692 59.6023C157.05 59.5348 160.568 64.3273 160.568 70.0648ZM145.552 70.3348C145.552 74.3848 147.446 77.2873 150.625 77.2873C153.804 77.2873 155.63 74.2498 155.63 70.2673C155.63 66.5548 153.871 63.3148 150.625 63.3148C147.378 63.3148 145.552 66.2848 145.552 70.3348Z" fill="#171717"/>
<path d="M163.206 60.2097C164.626 59.9397 166.655 59.8047 169.564 59.8047C172.472 59.8047 174.501 60.3447 175.922 61.4922C177.274 62.5047 178.154 64.2597 178.154 66.2847C178.154 68.3097 177.477 70.0647 176.26 71.2122C174.637 72.6972 172.269 73.3722 169.496 73.3722C168.887 73.3722 168.346 73.3047 167.873 73.3047V80.7297H163.206V60.2097ZM167.873 69.5922C168.278 69.6597 168.752 69.7272 169.428 69.7272C171.931 69.7272 173.487 68.4447 173.487 66.3522C173.487 64.4622 172.134 63.3147 169.834 63.3147C168.887 63.3147 168.211 63.3822 167.873 63.5172V69.5922Z" fill="#171717"/>
<path d="M180.589 75.8025C181.874 76.4775 183.768 77.085 185.797 77.085C187.961 77.085 189.111 76.2075 189.111 74.8575C189.111 73.575 188.097 72.8325 185.662 71.955C182.212 70.74 179.98 68.85 179.98 65.8125C179.98 62.3025 182.956 59.6025 187.826 59.6025C190.194 59.6025 191.885 60.075 193.102 60.615L192.087 64.395C191.276 63.99 189.788 63.3825 187.759 63.3825C185.729 63.3825 184.715 64.3275 184.715 65.4075C184.715 66.7575 185.865 67.2975 188.57 68.31C192.223 69.66 193.981 71.55 193.981 74.52C193.981 77.9625 191.276 80.9325 185.594 80.9325C183.227 80.9325 180.859 80.325 179.709 79.65L180.589 75.8025Z" fill="#171717"/>
</svg>
