<svg width="255" height="100" viewBox="0 0 255 100" fill="none" xmlns="http://www.w3.org/2000/svg">
<g clip-path="url(#clip0)">
<path d="M37.2961 41.8496C36.6957 41.5029 34.9751 41.7174 32.9081 42.3826C29.2905 44.9551 26.238 48.7461 26.0249 54.8322C25.986 54.9781 25.6293 54.8127 25.5585 54.7672C24.5819 52.8194 24.1946 50.7676 25.0102 47.8086C25.1622 47.545 24.6652 47.2207 24.5757 47.3139C24.3966 47.5002 23.6505 48.3279 23.1549 49.222C20.6978 53.6572 22.3046 59.3396 26.6031 61.827C30.9008 64.3179 36.3278 62.711 38.721 58.2375C41.4897 53.0751 38.9188 42.7928 37.2961 41.8496Z" fill="#171717"/>
<path d="M52.6797 44.327C47.5838 44.327 43.885 48.2689 43.885 53.7C43.885 59.1759 47.574 63.0001 52.8574 63.0001C55.5261 63.0001 57.6382 62.132 59.3185 60.3445C59.8204 59.7804 59.8745 59.2373 59.8745 59.0293C59.8745 58.1439 59.2415 57.5004 58.3697 57.5004C57.9304 57.5004 57.5625 57.673 57.1412 58.0789C56.1896 59.0012 54.9368 59.9437 52.8574 59.9437C49.9658 59.9437 47.6143 57.6845 47.4658 54.7834H58.9743C60.2257 54.7834 60.8337 54.1746 60.8337 52.9229C60.8337 52.5546 60.8337 52.2881 60.7622 51.7638C60.1424 47.1076 57.1211 44.327 52.6797 44.327ZM52.6797 47.2347C55.4428 47.2347 57.2162 49.067 57.3252 52.0245H47.4692C47.7281 49.288 49.952 47.2347 52.6797 47.2347ZM71.8245 44.327C69.5097 44.327 67.2179 45.7123 66.3225 47.6355V46.4468C66.3225 44.6051 64.951 44.5119 64.6761 44.5119C63.8634 44.5119 62.9944 45.0204 62.9944 46.4468V60.8053C62.9944 62.7177 64.4547 62.8145 64.7469 62.8145C65.0391 62.8145 66.5002 62.7177 66.5002 60.8053V53.1086C66.5002 49.7596 68.3242 47.4203 70.9353 47.4203C73.4646 47.4203 74.6945 49.1472 74.6945 52.7012V60.806C74.6945 62.7184 76.1555 62.8152 76.4477 62.8152C76.7399 62.8152 78.2003 62.7184 78.2003 60.806V51.5543C78.2003 48.0602 76.5248 44.327 71.8245 44.327ZM94.0627 44.5127C93.2528 44.5127 92.6649 45.0045 92.3151 45.9715L87.5183 58.5223L82.7583 45.9715C82.3856 44.9893 81.8025 44.5127 80.9752 44.5127C80.0083 44.5127 79.222 45.2977 79.222 46.2626C79.222 46.5017 79.2483 46.8108 79.442 47.2947L84.9544 60.8385C85.611 62.4722 86.6916 62.8152 87.4829 62.8152C88.2734 62.8152 89.3541 62.4722 90.0128 60.8392L95.5613 47.2203C95.7507 46.7422 95.7799 46.3919 95.7799 46.2258C95.7799 45.2493 95.0407 44.5127 94.0627 44.5127ZM104.257 44.327C102.015 44.327 99.9263 44.977 98.3771 46.1557C97.8517 46.5327 97.5963 47.0036 97.5963 47.5951C97.5963 48.4098 98.1939 49.0482 98.9588 49.0482C99.2892 49.0482 99.6598 48.911 99.9992 48.664C101.331 47.7403 102.583 47.3091 103.937 47.3091C106.529 47.3091 108.017 48.6806 108.017 51.0733V51.4698C102.198 51.4763 96.2803 52.2079 96.2803 57.4751C96.2803 61.2661 99.394 62.9633 102.48 62.9633C104.937 62.9633 106.9 61.95 108.159 60.0318V60.9541C108.159 62.3277 109.045 62.8145 109.806 62.8145C109.966 62.8145 111.381 62.7625 111.381 60.9541V51.2958C111.379 46.9321 108.716 44.327 104.257 44.327ZM107.279 54.1558H108.017V54.9964C108.017 58.0702 106.136 60.0563 103.226 60.0563C102.436 60.0563 99.8583 59.8649 99.8583 57.4014C99.8576 54.4916 104.093 54.1558 107.279 54.1558ZM120.509 47.8269C122.043 47.8269 122.121 46.5847 122.121 46.3363C122.121 45.5974 121.697 44.808 120.509 44.808H117.355V41.4887C117.355 40.006 116.43 39.4795 115.637 39.4795C115.345 39.4795 113.885 39.5763 113.885 41.4887V57.2541C113.885 60.8919 115.61 62.8152 118.873 62.8152C119.718 62.8152 120.54 62.6599 121.079 62.3992C121.696 62.0786 122.049 61.552 122.049 60.9548C122.049 60.1119 121.462 59.5002 120.652 59.5002C120.495 59.5002 120.273 59.5407 120.027 59.6143C119.726 59.6923 119.523 59.7227 119.301 59.7227C117.973 59.7227 117.355 58.8206 117.355 56.8836V47.8269H120.509ZM132.102 44.327C126.8 44.327 122.952 48.2379 122.952 53.6257C122.952 56.2488 123.885 58.6393 125.576 60.3575C127.255 62.0612 129.573 63.0001 132.102 63.0001C137.338 63.0001 141.287 58.9701 141.287 53.6264C141.288 48.2379 137.424 44.327 132.102 44.327ZM132.102 59.9076C128.466 59.9076 126.564 56.7478 126.564 53.6264C126.564 49.3371 129.435 47.3835 132.102 47.3835C134.77 47.3835 137.64 49.3371 137.64 53.6264C137.64 57.9417 134.77 59.9076 132.102 59.9076Z" fill="#171717"/>
<path d="M168.835 45.6212C168.322 45.0398 167.686 44.6079 166.944 44.3378C165.59 43.8467 163.738 43.8069 162.266 44.2937C161.576 44.5219 160.941 44.8383 160.377 45.2341C159.811 45.6327 159.315 46.1058 158.902 46.6402C158.772 46.8071 158.65 46.9797 158.536 47.1566C158.175 46.2293 157.644 45.5078 156.948 45.0058C155.975 44.3038 154.723 43.9478 153.225 43.9478C152.46 43.9478 151.736 44.0749 151.07 44.3248C150.413 44.5718 149.805 44.9134 149.263 45.3388C148.73 45.7569 148.258 46.2582 147.859 46.8273V44.8144C147.859 44.5126 147.623 44.2677 147.333 44.2677H146.487C146.197 44.2677 145.962 44.5126 145.962 44.8144V62.1333C145.962 62.4352 146.197 62.6801 146.487 62.6801H147.333C147.623 62.6801 147.859 62.4352 147.859 62.1333V51.2372C147.956 50.7251 148.133 50.1524 148.386 49.5334C148.641 48.9087 148.992 48.3122 149.429 47.7633C149.858 47.2259 150.392 46.7717 151.017 46.412C151.623 46.0646 152.35 45.8884 153.179 45.8884C153.785 45.8884 154.352 45.9621 154.863 46.1087C155.341 46.2459 155.741 46.4777 156.086 46.8179C156.429 47.1566 156.701 47.6282 156.898 48.219C157.103 48.8358 157.207 49.6396 157.207 50.6088V62.1333C157.207 62.4352 157.443 62.6801 157.733 62.6801H158.563C158.854 62.6801 159.089 62.4352 159.089 62.1333L159.088 50.6457C159.105 50.3849 159.169 50.0838 159.276 49.7516C159.387 49.4099 159.545 49.0604 159.745 48.7116C159.947 48.3577 160.199 48.0074 160.492 47.6679C160.777 47.3379 161.118 47.0382 161.508 46.7774C161.896 46.5174 162.343 46.3044 162.835 46.1426C163.324 45.983 163.877 45.8978 164.478 45.8877L164.586 45.8869C165.145 45.8869 165.67 45.9599 166.146 46.1058C166.623 46.2517 167.023 46.4965 167.368 46.8569C167.712 47.2144 167.987 47.7207 168.186 48.3591C168.393 49.0272 168.499 49.8909 168.499 50.9281V62.1333C168.499 62.4352 168.734 62.6801 169.024 62.6801H169.855C170.145 62.6801 170.38 62.4352 170.38 62.1333V50.9281C170.38 49.7263 170.25 48.6812 169.995 47.8211C169.733 46.9371 169.343 46.1968 168.835 45.6212ZM185.678 61.2378C185.629 60.9944 185.588 60.7344 185.554 60.4556C185.519 60.1725 185.492 59.8749 185.473 59.5608C185.453 59.2473 185.443 58.9418 185.443 58.6436V49.9682C185.443 48.9896 185.281 48.1099 184.959 47.3538C184.635 46.5918 184.176 45.9491 183.593 45.4428C183.018 44.9452 182.327 44.5653 181.54 44.3154C179.967 43.8178 177.944 43.8171 176.369 44.3862C175.564 44.6758 174.852 45.0781 174.256 45.5822C173.653 46.0935 173.177 46.6958 172.843 47.374C172.504 48.0623 172.332 48.7953 172.332 49.5515C172.332 49.8454 172.555 50.0867 172.838 50.0975L173.669 50.1293C173.809 50.1408 173.949 50.0794 174.053 49.9769C174.155 49.8743 174.214 49.7321 174.214 49.5833C174.214 49.0741 174.325 48.6126 174.556 48.1728C174.792 47.725 175.121 47.3307 175.537 47.0006C175.964 46.6612 176.477 46.3918 177.062 46.1982C177.653 46.0032 178.309 45.9043 179.01 45.9043C180.502 45.9043 181.651 46.2625 182.425 46.9688C183.189 47.6672 183.561 48.6372 183.561 49.9357V51.9182H180.102C178.865 51.9182 177.733 52.0562 176.738 52.3284C175.732 52.6051 174.863 52.9965 174.155 53.4927C173.427 54.004 172.862 54.6302 172.475 55.3524C172.083 56.0826 171.885 56.8886 171.885 57.7473C171.885 58.5136 172.022 59.2278 172.29 59.8699C172.56 60.5163 172.952 61.0803 173.452 61.5476C173.949 62.0113 174.552 62.3731 175.245 62.6244C175.929 62.8729 176.699 62.9993 177.533 62.9993C178.404 62.9993 179.211 62.8989 179.929 62.7003C180.644 62.5038 181.302 62.2301 181.884 61.8878C182.466 61.5447 182.984 61.1417 183.425 60.6889L183.616 60.4859L183.632 60.7134C183.682 61.3179 183.768 61.8459 183.89 62.2843C183.954 62.5183 184.16 62.6793 184.394 62.6793H185.348C185.638 62.6793 185.873 62.4345 185.873 62.1326V61.9889C185.873 61.9138 185.858 61.8387 185.829 61.7701C185.773 61.635 185.721 61.4559 185.678 61.2378ZM177.533 61.0587C176.961 61.0587 176.437 60.9706 175.974 60.7951C175.516 60.6224 175.117 60.3827 174.788 60.0822C174.465 59.7868 174.21 59.4387 174.031 59.0494C173.855 58.6659 173.767 58.2499 173.767 57.8116C173.767 57.2569 173.898 56.7607 174.168 56.2934C174.443 55.8182 174.847 55.4022 175.37 55.0548C175.913 54.6944 176.59 54.4084 177.383 54.2048C178.19 53.9975 179.12 53.8921 180.149 53.8921H183.561V57.3399C183.314 57.8896 183.007 58.3886 182.649 58.8263C182.27 59.2892 181.823 59.6915 181.321 60.0237C180.82 60.3552 180.247 60.6131 179.619 60.79C178.985 60.9677 178.284 61.0587 177.533 61.0587ZM195.935 44.1594C195.766 44.0915 195.57 44.0395 195.336 44.0019C195.115 43.9651 194.86 43.9471 194.578 43.9471C193.104 43.9471 191.854 44.3399 190.863 45.1134C190.416 45.4616 190.019 45.8689 189.673 46.3326V44.8144C189.673 44.5126 189.438 44.2677 189.147 44.2677H188.317C188.026 44.2677 187.791 44.5126 187.791 44.8144V62.1333C187.791 62.4352 188.026 62.6801 188.317 62.6801H189.147C189.438 62.6801 189.673 62.4352 189.673 62.1333V50.8334C189.798 50.1213 189.996 49.4554 190.263 48.8517C190.529 48.2501 190.871 47.7221 191.279 47.283C191.681 46.8511 192.162 46.5073 192.71 46.2603C193.256 46.0141 193.884 45.8891 194.578 45.8891C194.752 45.8891 194.919 45.8985 195.08 45.9173L195.59 45.9808C195.727 45.9982 195.867 45.9584 195.977 45.8703C196.087 45.7815 196.158 45.6508 196.176 45.5071L196.269 44.7386C196.298 44.488 196.161 44.2497 195.935 44.1594ZM202.906 52.2382L210.183 45.2146C210.341 45.0614 210.393 44.8238 210.315 44.6137C210.236 44.4049 210.042 44.267 209.826 44.267H208.641C208.509 44.267 208.382 44.319 208.285 44.4129L200.712 51.7001L199.645 52.7502V37.5467C199.645 37.2448 199.409 37 199.119 37H198.288C197.998 37 197.763 37.2448 197.763 37.5467V62.1333C197.763 62.4352 197.998 62.6801 198.288 62.6801H199.119C199.409 62.6801 199.645 62.4352 199.645 62.1333V55.213L201.51 53.5447L208.826 62.4879C208.926 62.61 209.072 62.6801 209.226 62.6801H210.317C210.608 62.6801 210.843 62.4352 210.843 62.1333C210.843 61.9571 210.762 61.8004 210.638 61.7007L202.906 52.2382ZM222.24 46.178C221.634 45.4731 220.901 44.9177 220.062 44.5306C218.345 43.7376 216.145 43.7412 214.359 44.6418C213.452 45.099 212.65 45.7454 211.975 46.5629C211.306 47.3726 210.769 48.3504 210.379 49.4692C209.991 50.5864 209.794 51.8207 209.794 53.1373V53.8415C209.794 55.161 209.997 56.3917 210.397 57.4988C210.798 58.6103 211.358 59.5846 212.06 60.3935C212.765 61.2074 213.601 61.8517 214.544 62.3081C215.492 62.7667 216.524 62.9993 217.612 62.9993C218.316 62.9993 218.974 62.9242 219.565 62.7761C220.157 62.6273 220.707 62.4186 221.199 62.1543C221.693 61.8878 222.143 61.5635 222.535 61.1916C222.921 60.8239 223.268 60.4108 223.566 59.9631C223.729 59.7168 223.673 59.3802 223.438 59.2069L222.854 58.775C222.625 58.6046 222.307 58.6529 222.135 58.8862C221.814 59.3174 221.479 59.6742 221.137 59.9479C220.797 60.2216 220.437 60.4433 220.069 60.6058C219.699 60.7698 219.308 60.8861 218.906 60.9532C217.709 61.154 216.385 61.0688 215.291 60.5069C214.569 60.1357 213.933 59.6236 213.403 58.9837C212.869 58.3388 212.443 57.5674 212.138 56.6892C211.832 55.8088 211.677 54.8497 211.677 53.8415V53.4436H223.628C223.918 53.4436 224.153 53.1987 224.153 52.8968V51.8886C224.153 50.7316 223.985 49.6569 223.653 48.6949C223.316 47.7257 222.841 46.8793 222.24 46.178ZM219.332 46.3679C219.94 46.6799 220.465 47.1075 220.892 47.6369C221.326 48.1764 221.668 48.8141 221.907 49.5313C222.113 50.1509 222.233 50.8074 222.262 51.4863H211.796C211.903 50.8284 212.078 50.2044 212.316 49.623C212.625 48.8741 213.029 48.2118 213.52 47.6571C214.005 47.1089 214.574 46.6749 215.21 46.3651C216.456 45.7598 218.117 45.7476 219.332 46.3679ZM232.774 61.3497C232.725 61.0601 232.465 60.8723 232.183 60.9041C231.903 60.946 231.643 60.9807 231.403 61.0059C230.949 61.0558 230.31 61.0832 229.795 60.9279C229.585 60.8651 229.403 60.7438 229.236 60.5538C229.062 60.3574 228.917 60.0606 228.808 59.6734C228.69 59.2567 228.629 58.6891 228.629 57.9871V46.2408H231.889C232.179 46.2408 232.414 45.996 232.414 45.6941V44.8137C232.414 44.5118 232.179 44.267 231.889 44.267H228.629V40.1395C228.629 39.8376 228.394 39.5928 228.104 39.5928H227.258C226.968 39.5928 226.732 39.8376 226.732 40.1395V44.267H224.181C223.891 44.267 223.656 44.5118 223.656 44.8137V45.6941C223.656 45.996 223.891 46.2408 224.181 46.2408H226.732V57.9878C226.732 58.8978 226.816 59.6742 226.982 60.2953C227.157 60.9503 227.42 61.4862 227.765 61.8892C228.12 62.3031 228.558 62.5992 229.068 62.7667C229.538 62.922 230.073 63.0007 230.657 63.0007L231.062 62.9921C231.225 62.9863 231.392 62.9747 231.57 62.9581L232.065 62.9003C232.256 62.8736 232.427 62.8317 232.575 62.7761C232.815 62.6851 232.957 62.4287 232.913 62.1673L232.774 61.3497Z" fill="#171717"/>
</g>
<defs>
<clipPath id="clip0">
<rect x="22" y="37" width="211" height="26" fill="white"/>
</clipPath>
</defs>
</svg>
