<svg xmlns="http://www.w3.org/2000/svg" width="58" height="58" viewBox="0 0 58 58" fill="none"><path fill-rule="evenodd" clip-rule="evenodd" d="M55.2812 38.8872H56.1875C56.4279 38.8872 56.6584 38.9827 56.8283 39.1526C56.9983 39.3226 57.0938 39.5531 57.0938 39.7934V45.2309C57.0938 46.4327 56.6164 47.5852 55.7666 48.435C54.9168 49.2848 53.7643 49.7622 52.5625 49.7622H48.0312V57.0122H46.2188V41.4609C45.0182 41.6543 43.7943 41.6543 42.5938 41.4609V57.0122H40.7812V49.7622H5.4375C4.84245 49.7622 4.25322 49.645 3.70347 49.4173C3.15371 49.1895 2.65419 48.8558 2.23342 48.435C1.38365 47.5852 0.90625 46.4327 0.90625 45.2309V39.7934C0.90625 39.5531 1.00173 39.3226 1.17168 39.1526C1.34164 38.9827 1.57215 38.8872 1.8125 38.8872H2.71875V8.98093C2.71875 8.25987 3.00519 7.56834 3.51505 7.05848C4.02492 6.54862 4.71644 6.26218 5.4375 6.26218H9.96875V1.73093C9.96875 1.49057 10.0642 1.26007 10.2342 1.09011C10.4041 0.920156 10.6346 0.824677 10.875 0.824677H47.125C47.3654 0.824677 47.5959 0.920156 47.7658 1.09011C47.9358 1.26007 48.0312 1.49057 48.0312 1.73093V6.26218H52.5625C53.2836 6.26218 53.9751 6.54862 54.4849 7.05848C54.9948 7.56834 55.2812 8.25987 55.2812 8.98093V22.4116C56.467 24.3732 57.0938 26.6217 57.0938 28.9139C57.0938 31.2061 56.467 33.4546 55.2812 35.4162V38.8872ZM52.2272 38.8872H53.4688V37.7725C53.0789 38.17 52.6643 38.5423 52.2272 38.8872ZM53.2033 8.34011C53.0334 8.17016 52.8029 8.07468 52.5625 8.07468H48.0312V9.88718H50.75C50.9904 9.88718 51.2209 9.98266 51.3908 10.1526C51.5608 10.3226 51.6562 10.5531 51.6562 10.7934V18.5147C52.3068 18.971 52.9136 19.4867 53.4688 20.0553V8.98093C53.4688 8.74057 53.3733 8.51007 53.2033 8.34011ZM38.9688 17.4725C39.5535 17.1873 40.1595 16.9479 40.7812 16.7566V15.3247H38.9688V17.4725ZM38.0625 13.5122H41.6875C41.9279 13.5122 42.1584 13.6077 42.3283 13.7776C42.4983 13.9476 42.5938 14.1781 42.5938 14.4184V16.3759C43.7943 16.1826 45.0182 16.1826 46.2188 16.3759V9.88718H11.7812V29.8247H31.7188V28.9184V28.0122H13.5938V26.1997H15.4062V14.4184C15.4062 14.1781 15.5017 13.9476 15.6717 13.7776C15.8416 13.6077 16.0721 13.5122 16.3125 13.5122H19.9375C20.1779 13.5122 20.4084 13.6077 20.5783 13.7776C20.7483 13.9476 20.8438 14.1781 20.8438 14.4184V26.1997H22.6562V21.6684C22.6562 21.4281 22.7517 21.1976 22.9217 21.0276C23.0916 20.8577 23.3221 20.7622 23.5625 20.7622H27.1875C27.4279 20.7622 27.6584 20.8577 27.8283 21.0276C27.9983 21.1976 28.0938 21.4281 28.0938 21.6684V26.1997H29.9062V16.2309C29.9062 15.9906 30.0017 15.7601 30.1717 15.5901C30.3416 15.4202 30.5721 15.3247 30.8125 15.3247H34.4375C34.6779 15.3247 34.9084 15.4202 35.0783 15.5901C35.2483 15.7601 35.3438 15.9906 35.3438 16.2309V20.0553C35.8989 19.4867 36.5057 18.971 37.1562 18.5147V14.4184C37.1562 14.1781 37.2517 13.9476 37.4217 13.7776C37.5916 13.6077 37.8221 13.5122 38.0625 13.5122ZM32.0178 31.6372H10.875C10.6346 31.6372 10.4041 31.5417 10.2342 31.3717C10.0642 31.2018 9.96875 30.9713 9.96875 30.7309V11.6997H8.15625V35.2622H33.4316C32.7804 34.1319 32.3038 32.9098 32.0178 31.6372ZM31.7188 26.1997H32.0178C32.3127 24.863 32.8239 23.5834 33.5312 22.4116V17.1372H31.7188V26.1997ZM24.4688 26.1997H26.2812V22.5747H24.4688V26.1997ZM17.2188 26.1997H19.0312V15.3247H17.2188V26.1997ZM49.8438 11.6997H48.0312V16.7566C48.653 16.9479 49.259 17.1873 49.8438 17.4725V11.6997ZM46.2188 8.07468V2.63718H11.7812V8.07468H46.2188ZM4.79668 8.34011C4.62673 8.51007 4.53125 8.74057 4.53125 8.98093V38.8872H36.5853C35.8986 38.3468 35.2672 37.7396 34.7003 37.0747H7.25C7.00965 37.0747 6.77914 36.9792 6.60918 36.8092C6.43923 36.6393 6.34375 36.4088 6.34375 36.1684V10.7934C6.34375 10.5531 6.43923 10.3226 6.60918 10.1526C6.77914 9.98266 7.00965 9.88718 7.25 9.88718H9.96875V8.07468H5.4375C5.19715 8.07468 4.96664 8.17016 4.79668 8.34011ZM5.4375 47.9497H40.7812V41.0712C40.4188 40.9625 40.0744 40.8356 39.7209 40.6997H2.71875V45.2309C2.71875 45.952 3.00519 46.6435 3.51505 47.1534C4.02492 47.6632 4.71644 47.9497 5.4375 47.9497ZM35.364 22.8766C34.1691 24.665 33.5312 26.7676 33.5312 28.9184C33.5312 31.8027 34.677 34.5688 36.7165 36.6082C38.7559 38.6477 41.522 39.7934 44.4062 39.7934C46.5571 39.7934 48.6597 39.1556 50.4481 37.9607C52.2365 36.7657 53.6303 35.0673 54.4534 33.0801C55.2765 31.093 55.4919 28.9064 55.0723 26.7968C54.6527 24.6873 53.6169 22.7495 52.096 21.2286C50.5751 19.7077 48.6374 18.672 46.5279 18.2524C44.4183 17.8328 42.2317 18.0481 40.2446 18.8712C38.2574 19.6943 36.559 21.0882 35.364 22.8766ZM54.4849 47.1534C54.9948 46.6435 55.2812 45.952 55.2812 45.2309V40.6997H49.0916C48.7381 40.8356 48.3937 40.9625 48.0312 41.0712V47.9497H52.5625C53.2836 47.9497 53.9751 47.6632 54.4849 47.1534ZM13.5938 4.44968H15.4062V6.26218H13.5938V4.44968ZM19.0312 4.44968H17.2188V6.26218H19.0312V4.44968ZM20.8438 4.44968H22.6562V6.26218H20.8438V4.44968ZM44.4063 19.8559C42.6139 19.8559 40.8617 20.3874 39.3714 21.3832C37.8811 22.379 36.7195 23.7944 36.0336 25.4504C35.3477 27.1063 35.1682 28.9285 35.5179 30.6864C35.8676 32.4444 36.7307 34.0592 37.9981 35.3266C39.2655 36.594 40.8803 37.4571 42.6382 37.8068C44.3962 38.1565 46.2184 37.977 47.8743 37.2911C49.5303 36.6052 50.9457 35.4436 51.9415 33.9533C52.9373 32.463 53.4688 30.7108 53.4688 28.9184C53.4688 26.5149 52.514 24.2098 50.8144 22.5103C49.1149 20.8107 46.8098 19.8559 44.4063 19.8559ZM44.4063 36.1684C42.9723 36.1684 41.5706 35.7432 40.3784 34.9466C39.1861 34.1499 38.2569 33.0176 37.7081 31.6929C37.1594 30.3681 37.0158 28.9104 37.2956 27.504C37.5753 26.0977 38.2658 24.8058 39.2797 23.7919C40.2937 22.778 41.5855 22.0875 42.9919 21.8077C44.3982 21.528 45.8559 21.6716 47.1807 22.2203C48.5055 22.769 49.6378 23.6983 50.4344 24.8905C51.2311 26.0828 51.6563 27.4845 51.6563 28.9184C51.6563 30.8412 50.8924 32.6853 49.5328 34.045C48.1731 35.4046 46.3291 36.1684 44.4063 36.1684ZM46.4662 24.8883C46.9237 24.5638 47.4704 24.3888 48.0313 24.3872V24.3781C48.5301 24.3767 49.0196 24.5125 49.4464 24.7707C49.8731 25.0289 50.2206 25.3995 50.4508 25.842C50.681 26.2844 50.7851 26.7817 50.7516 27.2793C50.7181 27.7769 50.5484 28.2558 50.261 28.6634C49.9736 29.071 49.5797 29.3918 49.1222 29.5905C48.6647 29.7892 48.1614 29.8583 47.6674 29.7901C47.1733 29.7219 46.7075 29.5191 46.3209 29.204C45.9344 28.8888 45.642 28.4734 45.4757 28.0031H43.8717L42.8748 29C43.2769 29.4702 43.5067 30.0636 43.526 30.682C43.5454 31.3004 43.3532 31.907 42.9812 32.4014C42.6093 32.8959 42.0798 33.2487 41.4802 33.4015C40.8806 33.5544 40.2469 33.4981 39.6836 33.2421C39.1203 32.9861 38.6612 32.5455 38.3821 31.9933C38.103 31.4411 38.0207 30.8102 38.1486 30.2048C38.2766 29.5994 38.6072 29.0558 39.0859 28.6638C39.5645 28.2717 40.1626 28.0546 40.7813 28.0484C40.9425 28.0496 41.1032 28.0648 41.2617 28.0937L42.8567 26.4625C42.9413 26.3785 43.0418 26.3121 43.1522 26.267C43.2626 26.2219 43.3808 26.199 43.5001 26.1997H45.4757C45.6627 25.6708 46.0087 25.2128 46.4662 24.8883ZM40.2779 31.4844C40.4269 31.584 40.6021 31.6372 40.7813 31.6372C41.0217 31.6372 41.2522 31.5417 41.4222 31.3717C41.5921 31.2018 41.6876 30.9713 41.6876 30.7309C41.6876 30.5517 41.6344 30.3765 41.5349 30.2274C41.4353 30.0784 41.2937 29.9623 41.1282 29.8937C40.9626 29.8251 40.7803 29.8071 40.6045 29.8421C40.4287 29.8771 40.2673 29.9634 40.1405 30.0901C40.0138 30.2169 39.9275 30.3783 39.8925 30.5541C39.8575 30.7299 39.8755 30.9121 39.9441 31.0777C40.0127 31.2433 40.1288 31.3849 40.2779 31.4844ZM47.5279 27.8595C47.6769 27.959 47.8521 28.0122 48.0313 28.0122C48.2717 28.0122 48.5022 27.9167 48.6722 27.7467C48.8421 27.5768 48.9376 27.3463 48.9376 27.1059C48.9376 26.9267 48.8844 26.7515 48.7849 26.6024C48.6853 26.4534 48.5437 26.3373 48.3782 26.2687C48.2126 26.2001 48.0303 26.1821 47.8545 26.2171C47.6787 26.2521 47.5173 26.3384 47.3905 26.4651C47.2638 26.5919 47.1775 26.7533 47.1425 26.9291C47.1075 27.1049 47.1255 27.2871 47.1941 27.4527C47.2627 27.6183 47.3788 27.7599 47.5279 27.8595Z" fill="url(#paint0_linear)"></path><defs><linearGradient id="paint0_linear" x1="1" y1="0.918426" x2="57" y2="56.9184" gradientUnits="userSpaceOnUse"><stop stop-color="#FF8C38"></stop><stop offset="1" stop-color="#FF5C38"></stop></linearGradient></defs></svg>
