<svg xmlns="http://www.w3.org/2000/svg" width="58" height="58" viewBox="0 0 58 58" fill="none"><path fill-rule="evenodd" clip-rule="evenodd" d="M49.8438 29.9062H54.375C55.0961 29.9062 55.7876 30.1927 56.2974 30.7026C56.8073 31.2124 57.0938 31.9039 57.0938 32.625C57.0938 33.3461 56.8073 34.0376 56.2974 34.5474C55.7876 35.0573 55.0961 35.3438 54.375 35.3438H52.345L48.0312 50.9947C47.9764 51.1907 47.8572 51.3626 47.6928 51.4826C47.5284 51.6026 47.3284 51.6638 47.125 51.6562H45.7113C46.0407 52.2036 46.2161 52.8299 46.2188 53.4688C46.2188 54.4302 45.8368 55.3522 45.157 56.032C44.4772 56.7118 43.5552 57.0938 42.5938 57.0938C41.6323 57.0938 40.7103 56.7118 40.0305 56.032C39.3507 55.3522 38.9688 54.4302 38.9688 53.4688C38.9714 52.8299 39.1468 52.2036 39.4762 51.6562H33.0238C33.3532 52.2036 33.5286 52.8299 33.5312 53.4688C33.5312 54.4302 33.1493 55.3522 32.4695 56.032C31.7897 56.7118 30.8677 57.0938 29.9062 57.0938C28.9448 57.0938 28.0228 56.7118 27.343 56.032C26.6632 55.3522 26.2812 54.4302 26.2812 53.4688C26.2839 52.8299 26.4593 52.2036 26.7887 51.6562H25.375C24.7374 51.6513 24.1219 51.4224 23.6359 51.0096C23.15 50.5968 22.8246 50.0264 22.7166 49.398C22.6086 48.7696 22.725 48.1232 23.0452 47.5719C23.3655 47.0206 23.8694 46.5994 24.4688 46.3819V42.5938H5.4375C4.84245 42.5938 4.25322 42.4765 3.70347 42.2488C3.15371 42.0211 2.65419 41.6873 2.23342 41.2666C1.38365 40.4168 0.90625 39.2643 0.90625 38.0625V5.4375C0.90625 4.23574 1.38365 3.0832 2.23342 2.23342C2.65419 1.81266 3.15371 1.47889 3.70347 1.25117C4.25322 1.02345 4.84245 0.90625 5.4375 0.90625H45.3125C45.9076 0.90625 46.4968 1.02345 47.0465 1.25117C47.5963 1.47889 48.0958 1.81266 48.5166 2.23342C48.9373 2.65419 49.2711 3.15371 49.4988 3.70347C49.7265 4.25322 49.8438 4.84245 49.8438 5.4375V29.9062ZM45.3125 2.71875H5.4375C4.71644 2.71875 4.02492 3.00519 3.51505 3.51505C3.00519 4.02492 2.71875 4.71644 2.71875 5.4375V8.15625H48.0312V5.4375C48.0312 4.71644 47.7448 4.02492 47.2349 3.51505C46.7251 3.00519 46.0336 2.71875 45.3125 2.71875ZM2.71875 9.96875V11.7812H8.15625V9.96875H2.71875ZM15.4062 9.96875H9.96875V11.7812H15.4062V9.96875ZM22.6562 9.96875H17.2188V11.7812H22.6562V9.96875ZM29.9062 9.96875H24.4688V11.7812H29.9062V9.96875ZM37.1562 9.96875H31.7188V11.7812H36.25C36.4904 11.7812 36.7209 11.6858 36.8908 11.5158C37.0608 11.3459 37.1562 11.1154 37.1562 10.875V9.96875ZM3.51505 39.9849C4.02492 40.4948 4.71644 40.7812 5.4375 40.7812H24.4688V37.1562H5.4375C5.19715 37.1562 4.96664 37.0608 4.79668 36.8908C4.62673 36.7209 4.53125 36.4904 4.53125 36.25V16.3125C4.53125 16.0721 4.62673 15.8416 4.79668 15.6717C4.96664 15.5017 5.19715 15.4062 5.4375 15.4062H29C29.2404 15.4062 29.4709 15.5017 29.6408 15.6717C29.8108 15.8416 29.9062 16.0721 29.9062 16.3125V33.5312H31.8909L30.9847 32.2444C30.8884 32.1091 30.8311 31.95 30.8191 31.7844C30.807 31.6188 30.8407 31.4531 30.9165 31.3053C30.9922 31.1576 31.1071 31.0334 31.2486 30.9465C31.3901 30.8596 31.5527 30.8133 31.7188 30.8125H33.5312V25.375C33.5312 25.1346 33.6267 24.9041 33.7967 24.7342C33.9666 24.5642 34.1971 24.4688 34.4375 24.4688H38.0625C38.3029 24.4688 38.5334 24.5642 38.7033 24.7342C38.8733 24.9041 38.9688 25.1346 38.9688 25.375V30.8125H40.7812C40.9465 30.8149 41.108 30.8625 41.2482 30.95C41.3884 31.0376 41.5019 31.1618 41.5766 31.3093C41.6513 31.4567 41.6842 31.6218 41.6718 31.7866C41.6594 31.9515 41.6021 32.1097 41.5062 32.2444L40.6 33.5312H47.2428L48.0312 30.6856V9.96875H38.9688V10.875C38.9688 11.5961 38.6823 12.2876 38.1724 12.7974C37.6626 13.3073 36.9711 13.5938 36.25 13.5938H2.71875V38.0625C2.71875 38.7836 3.00519 39.4751 3.51505 39.9849ZM12.6875 24.8403L7.62156 29.9062H17.7534L12.6875 24.8403ZM17.5903 27.1875L20.3091 29.9062H28.0938V29.3716L21.75 23.0278L17.5903 27.1875ZM22.3934 21.1066L28.0938 26.8159V17.2188H6.34375V28.6284L12.0441 22.9191C12.1283 22.8341 12.2285 22.7667 12.339 22.7207C12.4494 22.6747 12.5679 22.651 12.6875 22.651C12.8071 22.651 12.9256 22.6747 13.036 22.7207C13.1465 22.7667 13.2467 22.8341 13.3309 22.9191L16.3125 25.9097L21.1066 21.1066C21.1908 21.0216 21.291 20.9542 21.4015 20.9082C21.5119 20.8622 21.6304 20.8385 21.75 20.8385C21.8696 20.8385 21.9881 20.8622 22.0985 20.9082C22.209 20.9542 22.3092 21.0216 22.3934 21.1066ZM28.0938 33.5312V31.7188H6.34375V35.3438H24.4688V34.4375C24.4688 34.1971 24.5642 33.9666 24.7342 33.7967C24.9041 33.6267 25.1346 33.5312 25.375 33.5312H28.0938ZM33.1959 35.3438H26.2812V46.2188H43.7175L46.7353 35.3438H39.3041L36.9841 38.5881C36.9 38.7042 36.7897 38.7987 36.6621 38.8638C36.5345 38.929 36.3933 38.9629 36.25 38.9629C36.1067 38.9629 35.9655 38.929 35.8379 38.8638C35.7103 38.7987 35.6 38.7042 35.5159 38.5881L33.1959 35.3438ZM39.0231 32.625H38.0625C37.8221 32.625 37.5916 32.5295 37.4217 32.3596C37.2517 32.1896 37.1562 31.9591 37.1562 31.7188V26.2812H35.3438V31.7188C35.3438 31.9591 35.2483 32.1896 35.0783 32.3596C34.9084 32.5295 34.6779 32.625 34.4375 32.625H33.4769L36.25 36.5037L39.0231 32.625ZM31.4133 54.4757C31.6124 54.1777 31.7188 53.8272 31.7188 53.4688C31.7188 52.988 31.5278 52.527 31.1879 52.1871C30.848 51.8472 30.387 51.6562 29.9062 51.6562C29.5478 51.6562 29.1973 51.7626 28.8993 51.9617C28.6012 52.1609 28.3689 52.4439 28.2317 52.7751C28.0945 53.1063 28.0586 53.4708 28.1286 53.8224C28.1985 54.1739 28.3711 54.4969 28.6246 54.7504C28.8781 55.0039 29.2011 55.1765 29.5526 55.2464C29.9042 55.3164 30.2687 55.2805 30.5999 55.1433C30.9311 55.0061 31.2141 54.7738 31.4133 54.4757ZM44.1008 54.4757C44.2999 54.1777 44.4062 53.8272 44.4062 53.4688C44.4062 52.988 44.2153 52.527 43.8754 52.1871C43.5355 51.8472 43.0745 51.6562 42.5938 51.6562C42.2353 51.6562 41.8848 51.7626 41.5868 51.9617C41.2887 52.1609 41.0564 52.4439 40.9192 52.7751C40.782 53.1063 40.7461 53.4708 40.8161 53.8224C40.886 54.1739 41.0586 54.4969 41.3121 54.7504C41.5656 55.0039 41.8886 55.1765 42.2401 55.2464C42.5917 55.3164 42.9562 55.2805 43.2874 55.1433C43.6186 55.0061 43.9016 54.7738 44.1008 54.4757ZM51.6562 33.5312H54.375C54.6154 33.5312 54.8459 33.4358 55.0158 33.2658C55.1858 33.0959 55.2812 32.8654 55.2812 32.625C55.2812 32.3846 55.1858 32.1541 55.0158 31.9842C54.8459 31.8142 54.6154 31.7188 54.375 31.7188H49.6262L45.3125 47.3697C45.2577 47.5657 45.1385 47.7376 44.9741 47.8576C44.8097 47.9776 44.6097 48.0388 44.4062 48.0312H25.375C25.1346 48.0312 24.9041 48.1267 24.7342 48.2967C24.5642 48.4666 24.4688 48.6971 24.4688 48.9375C24.4688 49.1779 24.5642 49.4084 24.7342 49.5783C24.9041 49.7483 25.1346 49.8438 25.375 49.8438H46.4363L50.75 34.1928C50.8048 33.9968 50.924 33.8249 51.0884 33.7049C51.2528 33.5849 51.4528 33.5237 51.6562 33.5312ZM38.9688 4.53125H37.1562V6.34375H38.9688V4.53125ZM40.7812 4.53125H42.5938V6.34375H40.7812V4.53125ZM38.9688 20.8438H33.5312V22.6562H38.9688V20.8438ZM17.823 23.1043C17.3759 23.4031 16.8502 23.5625 16.3125 23.5625C15.5914 23.5625 14.8999 23.2761 14.3901 22.7662C13.8802 22.2563 13.5938 21.5648 13.5938 20.8438C13.5938 20.306 13.7532 19.7804 14.0519 19.3333C14.3507 18.8862 14.7753 18.5377 15.2721 18.332C15.7689 18.1262 16.3155 18.0723 16.8429 18.1772C17.3703 18.2821 17.8547 18.5411 18.2349 18.9213C18.6152 19.3015 18.8741 19.786 18.979 20.3133C19.0839 20.8407 19.0301 21.3874 18.8243 21.8842C18.6185 22.381 18.2701 22.8056 17.823 23.1043ZM16.816 20.0902C16.667 19.9907 16.4917 19.9375 16.3125 19.9375C16.0721 19.9375 15.8416 20.033 15.6717 20.2029C15.5017 20.3729 15.4062 20.6034 15.4062 20.8438C15.4062 21.023 15.4594 21.1982 15.559 21.3472C15.6586 21.4963 15.8001 21.6124 15.9657 21.681C16.1313 21.7496 16.3135 21.7676 16.4893 21.7326C16.6651 21.6976 16.8266 21.6113 16.9533 21.4846C17.0801 21.3578 17.1664 21.1963 17.2013 21.0206C17.2363 20.8448 17.2184 20.6625 17.1498 20.4969C17.0812 20.3314 16.965 20.1898 16.816 20.0902ZM44.4062 4.53125H46.2188V6.34375H44.4062V4.53125Z" fill="url(#paint0_linear)"></path><defs><linearGradient id="paint0_linear" x1="1" y1="1" x2="57" y2="57" gradientUnits="userSpaceOnUse"><stop stop-color="#FF8C38"></stop><stop offset="1" stop-color="#FF5C38"></stop></linearGradient></defs></svg>
