<svg xmlns="http://www.w3.org/2000/svg" width="58" height="58" viewBox="0 0 58 58" fill="none"><path fill-rule="evenodd" clip-rule="evenodd" d="M54.375 9.96875H38.9688V9.0625C38.9688 8.82215 38.8733 8.59164 38.7033 8.42168C38.5334 8.25173 38.3029 8.15625 38.0625 8.15625H36.6841C36.6016 7.92153 36.5083 7.69225 36.4059 7.46931L37.797 6.07822C37.9669 5.90827 38.0623 5.6778 38.0623 5.4375C38.0623 5.1972 37.9669 4.96673 37.797 4.79678L35.0782 2.07803C34.9083 1.90814 34.6778 1.81269 34.4375 1.81269C34.1972 1.81269 33.9667 1.90814 33.7968 2.07803L32.4057 3.46913C32.1827 3.36672 31.9526 3.27338 31.7188 3.19091V1.8125C31.7188 1.57215 31.6233 1.34164 31.4533 1.17168C31.2834 1.00173 31.0529 0.90625 30.8125 0.90625H27.1875C26.9471 0.90625 26.7166 1.00173 26.5467 1.17168C26.3767 1.34164 26.2812 1.57215 26.2812 1.8125V3.19091C26.0465 3.27338 25.8173 3.36672 25.5943 3.46913L24.2032 2.07803C24.0333 1.90814 23.8028 1.81269 23.5625 1.81269C23.3222 1.81269 23.0917 1.90814 22.9218 2.07803L20.203 4.79678C20.0331 4.96673 19.9377 5.1972 19.9377 5.4375C19.9377 5.6778 20.0331 5.90827 20.203 6.07822L21.5941 7.46931C21.4917 7.69225 21.3984 7.92244 21.3159 8.15625H19.9375C19.6971 8.15625 19.4666 8.25173 19.2967 8.42168C19.1267 8.59164 19.0312 8.82215 19.0312 9.0625V9.96875H3.625C2.90394 9.96875 2.21242 10.2552 1.70255 10.7651C1.19269 11.2749 0.90625 11.9664 0.90625 12.6875V41.6875C0.90625 42.4086 1.19269 43.1001 1.70255 43.6099C2.21242 44.1198 2.90394 44.4062 3.625 44.4062H22.6562V49.8438H19.9375C19.2164 49.8438 18.5249 50.1302 18.0151 50.6401C17.5052 51.1499 17.2188 51.8414 17.2188 52.5625V56.1875C17.2188 56.4279 17.3142 56.6584 17.4842 56.8283C17.6541 56.9983 17.8846 57.0938 18.125 57.0938H39.875C40.1154 57.0938 40.3459 56.9983 40.5158 56.8283C40.6858 56.6584 40.7812 56.4279 40.7812 56.1875V52.5625C40.7812 51.8414 40.4948 51.1499 39.9849 50.6401C39.4751 50.1302 38.7836 49.8438 38.0625 49.8438H35.3438V44.4062H54.375C55.0961 44.4062 55.7876 44.1198 56.2974 43.6099C56.8073 43.1001 57.0938 42.4086 57.0938 41.6875V12.6875C57.0938 11.9664 56.8073 11.2749 56.2974 10.7651C55.7876 10.2552 55.0961 9.96875 54.375 9.96875ZM20.8438 9.96875H21.9874C22.188 9.96855 22.3829 9.9018 22.5415 9.77897C22.7001 9.65613 22.8134 9.48415 22.8638 9.28997C23.0028 8.74903 23.2127 8.22886 23.4882 7.743C23.586 7.57062 23.6246 7.37092 23.5981 7.1745C23.5716 6.97808 23.4814 6.79577 23.3414 6.6555L22.1252 5.4375L23.5625 4.00019L24.7787 5.21637C24.919 5.3564 25.1013 5.44658 25.2977 5.47309C25.4941 5.49961 25.6938 5.461 25.8662 5.36319C26.352 5.08773 26.8722 4.87777 27.4132 4.73878C27.6077 4.68877 27.7801 4.57557 27.9032 4.41695C28.0264 4.25833 28.0934 4.06328 28.0938 3.86244V2.71875H29.9062V3.86244C29.9064 4.06304 29.9732 4.2579 30.096 4.41649C30.2189 4.57508 30.3909 4.68843 30.585 4.73878C31.126 4.87777 31.6461 5.08773 32.132 5.36319C32.3044 5.461 32.5041 5.49961 32.7005 5.47309C32.8969 5.44658 33.0792 5.3564 33.2195 5.21637L34.4375 4.00019L35.8748 5.4375L34.6586 6.65369C34.5186 6.79396 34.4284 6.97627 34.4019 7.17269C34.3754 7.36911 34.414 7.56881 34.5118 7.74119C34.7873 8.22704 34.9972 8.74722 35.1362 9.28816C35.1866 9.48233 35.2999 9.65432 35.4585 9.77715C35.6171 9.89999 35.812 9.96674 36.0126 9.96694H37.1562V11.7794H36.0126C35.812 11.7796 35.6171 11.8464 35.4585 11.9692C35.2999 12.0921 35.1866 12.264 35.1362 12.4582C34.9972 12.9992 34.7873 13.5193 34.5118 14.0052C34.414 14.1776 34.3754 14.3773 34.4019 14.5737C34.4284 14.7701 34.5186 14.9524 34.6586 15.0927L35.8748 16.3125L34.4375 17.7498L33.2213 16.5336C33.081 16.3936 32.8987 16.3034 32.7023 16.2769C32.5059 16.2504 32.3062 16.289 32.1338 16.3868C31.648 16.6623 31.1278 16.8722 30.5868 17.0112C30.3927 17.0616 30.2207 17.1749 30.0978 17.3335C29.975 17.4921 29.9083 17.687 29.9081 17.8876V19.0312H28.0938V17.8876C28.0936 17.687 28.0268 17.4921 27.904 17.3335C27.7811 17.1749 27.6091 17.0616 27.415 17.0112C26.874 16.8722 26.3539 16.6623 25.868 16.3868C25.6956 16.289 25.4959 16.2504 25.2995 16.2769C25.1031 16.3034 24.9208 16.3936 24.7805 16.5336L23.5625 17.7498L22.1252 16.3125L23.3414 15.0963C23.4814 14.956 23.5716 14.7737 23.5981 14.5773C23.6246 14.3809 23.586 14.1812 23.4882 14.0088C23.2127 13.523 23.0028 13.0028 22.8638 12.4618C22.8138 12.2673 22.7006 12.0949 22.5419 11.9718C22.3833 11.8486 22.1883 11.7816 21.9874 11.7812H20.8438V9.96875ZM3.625 11.7812H19.0312V12.6875C19.0312 12.9279 19.1267 13.1584 19.2967 13.3283C19.4666 13.4983 19.6971 13.5938 19.9375 13.5938H21.3159C21.3984 13.8285 21.4917 14.0578 21.5941 14.2807L20.203 15.6718C20.0331 15.8417 19.9377 16.0722 19.9377 16.3125C19.9377 16.5528 20.0331 16.7833 20.203 16.9532L22.9218 19.672C23.0917 19.8419 23.3222 19.9373 23.5625 19.9373C23.8028 19.9373 24.0333 19.8419 24.2032 19.672L25.5943 18.2809C25.8173 18.3833 26.0474 18.4766 26.2812 18.5591V19.9375C26.2812 20.1779 26.3767 20.4084 26.5467 20.5783C26.7166 20.7483 26.9471 20.8438 27.1875 20.8438H30.8125C31.0529 20.8438 31.2834 20.7483 31.4533 20.5783C31.6233 20.4084 31.7188 20.1779 31.7188 19.9375V18.5591C31.9535 18.4766 32.1827 18.3833 32.4057 18.2809L33.7968 19.672C33.9667 19.8419 34.1972 19.9373 34.4375 19.9373C34.6778 19.9373 34.9083 19.8419 35.0782 19.672L37.797 16.9532C37.9669 16.7833 38.0623 16.5528 38.0623 16.3125C38.0623 16.0722 37.9669 15.8417 37.797 15.6718L36.4059 14.2807C36.5083 14.0578 36.6016 13.8276 36.6841 13.5938H38.0625C38.3029 13.5938 38.5334 13.4983 38.7033 13.3283C38.8733 13.1584 38.9688 12.9279 38.9688 12.6875V11.7812H54.375C54.6154 11.7812 54.8459 11.8767 55.0158 12.0467C55.1858 12.2166 55.2812 12.4471 55.2812 12.6875V35.3438H2.71875V12.6875C2.71875 12.4471 2.81423 12.2166 2.98418 12.0467C3.15414 11.8767 3.38465 11.7812 3.625 11.7812ZM38.9688 52.5625V55.2812H19.0312V52.5625C19.0312 52.3221 19.1267 52.0916 19.2967 51.9217C19.4666 51.7517 19.6971 51.6562 19.9375 51.6562H38.0625C38.3029 51.6562 38.5334 51.7517 38.7033 51.9217C38.8733 52.0916 38.9688 52.3221 38.9688 52.5625ZM24.4688 49.8438V44.4062H33.5312V49.8438H24.4688ZM3.625 42.5938C3.38465 42.5938 3.15414 42.4983 2.98418 42.3283C2.81423 42.1584 2.71875 41.9279 2.71875 41.6875V37.1562H55.2812V41.6875C55.2812 41.9279 55.1858 42.1584 55.0158 42.3283C54.8459 42.4983 54.6154 42.5938 54.375 42.5938H3.625ZM53.4688 40.7812V38.9688H51.6562V40.7812H53.4688ZM48.0312 38.9688H49.8438V40.7812H48.0312V38.9688ZM4.53125 38.9688V40.7812H8.15625V38.9688H4.53125ZM31.5174 14.6426C30.7723 15.1405 29.8962 15.4063 29 15.4063C27.7987 15.4048 26.647 14.927 25.7975 14.0775C24.948 13.228 24.4702 12.0763 24.4688 10.875C24.4688 9.97881 24.7345 9.10273 25.2324 8.35757C25.7303 7.61241 26.438 7.03163 27.266 6.68867C28.0939 6.34571 29.005 6.25598 29.884 6.43082C30.763 6.60566 31.5704 7.03722 32.2041 7.67092C32.8378 8.30463 33.2694 9.11202 33.4442 9.991C33.619 10.87 33.5293 11.7811 33.1863 12.609C32.8434 13.437 32.2626 14.1447 31.5174 14.6426ZM30.5105 8.61444C30.0634 8.3157 29.5377 8.15625 29 8.15625C28.2789 8.15625 27.5874 8.44269 27.0776 8.95255C26.5677 9.46242 26.2813 10.1539 26.2813 10.875C26.2813 11.4127 26.4407 11.9384 26.7394 12.3855C27.0382 12.8326 27.4628 13.181 27.9596 13.3868C28.4564 13.5926 29.003 13.6464 29.5304 13.5415C30.0578 13.4366 30.5422 13.1777 30.9224 12.7974C31.3027 12.4172 31.5616 11.9328 31.6665 11.4054C31.7714 10.878 31.7176 10.3314 31.5118 9.83458C31.306 9.33779 30.9576 8.91318 30.5105 8.61444ZM5.4375 33.5312H29C29.2404 33.5312 29.4709 33.4358 29.6408 33.2658C29.8108 33.0959 29.9062 32.8654 29.9062 32.625V29C29.9062 28.7596 29.8108 28.5291 29.6408 28.3592C29.4709 28.1892 29.2404 28.0938 29 28.0938H5.4375C5.19715 28.0938 4.96664 28.1892 4.79668 28.3592C4.62673 28.5291 4.53125 28.7596 4.53125 29V32.625C4.53125 32.8654 4.62673 33.0959 4.79668 33.2658C4.96664 33.4358 5.19715 33.5312 5.4375 33.5312ZM6.34375 29.9062H28.0938V31.7188H6.34375V29.9062ZM31.7188 28.0938H53.4688V29.9062H31.7188V28.0938ZM53.4688 31.7188H31.7188V33.5312H53.4688V31.7188ZM52.5625 26.2812H5.4375C5.19715 26.2812 4.96664 26.1858 4.79668 26.0158C4.62673 25.8459 4.53125 25.6154 4.53125 25.375V14.5C4.53125 14.2596 4.62673 14.0291 4.79668 13.8592C4.96664 13.6892 5.19715 13.5938 5.4375 13.5938H18.125V15.4062H6.34375V24.4688H51.6562V15.4062H39.875V13.5938H52.5625C52.8029 13.5938 53.0334 13.6892 53.2033 13.8592C53.3733 14.0291 53.4688 14.2596 53.4688 14.5V25.375C53.4688 25.6154 53.3733 25.8459 53.2033 26.0158C53.0334 26.1858 52.8029 26.2812 52.5625 26.2812Z" fill="url(#paint0_linear)"></path><defs><linearGradient id="paint0_linear" x1="1" y1="1" x2="57" y2="57" gradientUnits="userSpaceOnUse"><stop stop-color="#FF8C38"></stop><stop offset="1" stop-color="#FF5C38"></stop></linearGradient></defs></svg>
