<svg xmlns="http://www.w3.org/2000/svg" width="58" height="58" viewBox="0 0 58 58" fill="none"><path fill-rule="evenodd" clip-rule="evenodd" d="M44.7814 24.4688H56.1875C56.4279 24.4688 56.6584 24.5642 56.8283 24.7342C56.9983 24.9041 57.0938 25.1346 57.0938 25.375V41.6875C57.0938 41.9279 56.9983 42.1584 56.8283 42.3283C56.6584 42.4983 56.4279 42.5938 56.1875 42.5938H32.625C32.3846 42.5938 32.1541 42.4983 31.9842 42.3283C31.8142 42.1584 31.7188 41.9279 31.7188 41.6875V38.9688H29.9062V52.5625C29.9048 53.7638 29.427 54.9155 28.5775 55.765C27.728 56.6144 26.5763 57.0923 25.375 57.0938H5.4375C4.23618 57.0923 3.08447 56.6144 2.23501 55.765C1.38555 54.9155 0.907689 53.7638 0.90625 52.5625V5.4375C0.907689 4.23618 1.38555 3.08447 2.23501 2.23501C3.08447 1.38555 4.23618 0.907689 5.4375 0.90625H25.375C26.5763 0.907689 27.728 1.38555 28.5775 2.23501C29.427 3.08447 29.9048 4.23618 29.9062 5.4375V19.0312H38.9688C39.2091 19.0313 39.4396 19.1268 39.6095 19.2968L44.7814 24.4688ZM33.5312 28.0938H55.2812V26.2812H33.5312V28.0938ZM25.375 2.71875H5.4375C4.71644 2.71875 4.02492 3.00519 3.51505 3.51505C3.00519 4.02492 2.71875 4.71644 2.71875 5.4375V8.15625H28.0938V5.4375C28.0938 4.71644 27.8073 4.02492 27.2974 3.51505C26.7876 3.00519 26.0961 2.71875 25.375 2.71875ZM3.51505 54.4849C4.02492 54.9948 4.71644 55.2812 5.4375 55.2812H25.375C26.0961 55.2812 26.7876 54.9948 27.2974 54.4849C27.8073 53.9751 28.0938 53.2836 28.0938 52.5625V46.2188H2.71875V52.5625C2.71875 53.2836 3.00519 53.9751 3.51505 54.4849ZM2.71875 44.4062H28.0938V38.9688H17.2188V39.875C17.2188 40.1154 17.1233 40.3459 16.9533 40.5158C16.7834 40.6858 16.5529 40.7812 16.3125 40.7812H9.0625C8.82215 40.7812 8.59164 40.6858 8.42168 40.5158C8.25173 40.3459 8.15625 40.1154 8.15625 39.875V23.5625C8.15625 23.3221 8.25173 23.0916 8.42168 22.9217C8.59164 22.7517 8.82215 22.6562 9.0625 22.6562H16.3125C16.5529 22.6562 16.7834 22.7517 16.9533 22.9217C17.1233 23.0916 17.2188 23.3221 17.2188 23.5625V24.4688H19.6656L27.5908 19.1835C27.7399 19.0845 27.9148 19.0315 28.0938 19.0312V9.96875H2.71875V44.4062ZM15.4062 38.9688V24.4688H9.96875V38.9688H15.4062ZM17.2188 26.2812V37.1562H38.9688C39.4495 37.1562 39.9105 36.9653 40.2504 36.6254C40.5903 36.2855 40.7812 35.8245 40.7812 35.3438C40.7812 34.863 40.5903 34.402 40.2504 34.0621C39.9105 33.7222 39.4495 33.5312 38.9688 33.5312H32.625C32.3846 33.5312 32.1541 33.4358 31.9842 33.2658C31.8142 33.0959 31.7188 32.8654 31.7188 32.625V25.375C31.7188 25.1346 31.8142 24.9041 31.9842 24.7342C32.1541 24.5642 32.3846 24.4688 32.625 24.4688H42.2186L38.5936 20.8438H28.3656L20.4405 26.129C20.2914 26.228 20.1165 26.281 19.9375 26.2812H17.2188ZM38.9688 38.9688H33.5312V40.7812H55.2812V29.9062H33.5312V31.7188H38.9688C39.9302 31.7188 40.8522 32.1007 41.532 32.7805C42.2118 33.4603 42.5938 34.3823 42.5938 35.3438C42.5938 36.3052 42.2118 37.2272 41.532 37.907C40.8522 38.5868 39.9302 38.9688 38.9688 38.9688ZM18.125 4.53125H12.6875V6.34375H18.125V4.53125ZM15.4063 48.0312C14.8685 48.0312 14.3429 48.1907 13.8958 48.4894C13.4487 48.7882 13.1002 49.2128 12.8945 49.7096C12.6887 50.2064 12.6348 50.753 12.7397 51.2804C12.8446 51.8078 13.1036 52.2922 13.4838 52.6724C13.864 53.0527 14.3485 53.3116 14.8758 53.4165C15.4032 53.5214 15.9499 53.4676 16.4467 53.2618C16.9435 53.056 17.3681 52.7076 17.6668 52.2605C17.9656 51.8134 18.125 51.2877 18.125 50.75C18.125 50.0289 17.8386 49.3374 17.3287 48.8276C16.8188 48.3177 16.1273 48.0312 15.4063 48.0312ZM15.4063 51.6562C15.227 51.6562 15.0518 51.6031 14.9028 51.5035C14.7537 51.4039 14.6376 51.2624 14.569 51.0968C14.5004 50.9312 14.4824 50.749 14.5174 50.5732C14.5524 50.3974 14.6387 50.2359 14.7654 50.1092C14.8922 49.9824 15.0537 49.8961 15.2295 49.8612C15.4052 49.8262 15.5875 49.8441 15.7531 49.9127C15.9187 49.9813 16.0602 50.0975 16.1598 50.2465C16.2594 50.3955 16.3125 50.5708 16.3125 50.75C16.3125 50.9904 16.217 51.2209 16.0471 51.3908C15.8771 51.5608 15.6466 51.6562 15.4063 51.6562ZM50.75 33.5312C50.4408 33.5321 50.1342 33.5866 49.8438 33.6926C49.5533 33.5866 49.2467 33.5321 48.9375 33.5312C48.2164 33.5312 47.5249 33.8177 47.0151 34.3276C46.5052 34.8374 46.2188 35.5289 46.2188 36.25C46.2188 36.9711 46.5052 37.6626 47.0151 38.1724C47.5249 38.6823 48.2164 38.9688 48.9375 38.9688C49.2467 38.9679 49.5533 38.9134 49.8438 38.8074C50.1342 38.9134 50.4408 38.9679 50.75 38.9688C51.4711 38.9688 52.1626 38.6823 52.6724 38.1724C53.1823 37.6626 53.4688 36.9711 53.4688 36.25C53.4688 35.5289 53.1823 34.8374 52.6724 34.3276C52.1626 33.8177 51.4711 33.5312 50.75 33.5312ZM50.2969 37.0276C50.1585 36.947 50.0012 36.9046 49.841 36.9046C49.6809 36.9046 49.5236 36.947 49.3852 37.0276C49.2483 37.1076 49.0928 37.1501 48.9342 37.1508C48.7756 37.1515 48.6197 37.1103 48.4822 37.0314C48.3446 36.9525 48.2304 36.8387 48.1509 36.7015C48.0714 36.5643 48.0296 36.4086 48.0296 36.25C48.0296 36.0914 48.0714 35.9357 48.1509 35.7985C48.2304 35.6613 48.3446 35.5475 48.4822 35.4686C48.6197 35.3897 48.7756 35.3485 48.9342 35.3492C49.0928 35.3499 49.2483 35.3924 49.3852 35.4724C49.5236 35.553 49.6809 35.5954 49.841 35.5954C50.0012 35.5954 50.1585 35.553 50.2969 35.4724C50.4337 35.3924 50.5893 35.3499 50.7479 35.3492C50.9064 35.3485 51.0624 35.3897 51.1999 35.4686C51.3374 35.5475 51.4517 35.6613 51.5312 35.7985C51.6107 35.9357 51.6525 36.0914 51.6525 36.25C51.6525 36.4086 51.6107 36.5643 51.5312 36.7015C51.4517 36.8387 51.3374 36.9525 51.1999 37.0314C51.0624 37.1103 50.9064 37.1515 50.7479 37.1508C50.5893 37.1501 50.4337 37.1076 50.2969 37.0276ZM35.3438 44.4062H53.4688V46.2188H35.3438V44.4062ZM55.2812 44.4062V46.2188H57.0938V44.4062H55.2812ZM33.5312 49.8438V48.0312H51.6562V49.8438H33.5312Z" fill="url(#paint0_linear)"></path><defs><linearGradient id="paint0_linear" x1="1" y1="1" x2="57" y2="57" gradientUnits="userSpaceOnUse"><stop stop-color="#FF8C38"></stop><stop offset="1" stop-color="#FF5C38"></stop></linearGradient></defs></svg>
