<svg xmlns="http://www.w3.org/2000/svg" width="58" height="58" viewBox="0 0 58 58" fill="none"><path fill-rule="evenodd" clip-rule="evenodd" d="M4.53125 0.90625H53.4688C54.4302 0.90625 55.3522 1.28817 56.032 1.96799C56.7118 2.64781 57.0938 3.56984 57.0938 4.53125V38.9688C57.0938 39.9302 56.7118 40.8522 56.032 41.532C55.3522 42.2118 54.4302 42.5938 53.4688 42.5938H36.25V49.8438H38.0625C39.0239 49.8438 39.9459 50.2257 40.6258 50.9055C41.3056 51.5853 41.6875 52.5073 41.6875 53.4688V56.1875C41.6875 56.4279 41.592 56.6584 41.4221 56.8283C41.2521 56.9983 41.0216 57.0938 40.7812 57.0938H17.2188C16.9784 57.0938 16.7479 56.9983 16.5779 56.8283C16.408 56.6584 16.3125 56.4279 16.3125 56.1875V53.4688C16.3125 52.5073 16.6944 51.5853 17.3742 50.9055C18.0541 50.2257 18.9761 49.8438 19.9375 49.8438H21.75V42.5938H4.53125C3.56984 42.5938 2.64781 42.2118 1.96799 41.532C1.28817 40.8522 0.90625 39.9302 0.90625 38.9688V4.53125C0.90625 3.56984 1.28817 2.64781 1.96799 1.96799C2.64781 1.28817 3.56984 0.90625 4.53125 0.90625ZM39.875 55.2812V53.4688C39.875 52.988 39.684 52.527 39.3441 52.1871C39.0042 51.8472 38.5432 51.6562 38.0625 51.6562H19.9375C19.4568 51.6562 18.9958 51.8472 18.6559 52.1871C18.316 52.527 18.125 52.988 18.125 53.4688V55.2812H39.875ZM23.5625 49.8438H34.4375V42.5938H23.5625V49.8438ZM54.7504 40.2504C55.0903 39.9105 55.2812 39.4495 55.2812 38.9688V4.53125C55.2812 4.05054 55.0903 3.58953 54.7504 3.24962C54.4105 2.90971 53.9495 2.71875 53.4688 2.71875H4.53125C4.05054 2.71875 3.58953 2.90971 3.24962 3.24962C2.90971 3.58953 2.71875 4.05054 2.71875 4.53125V38.9688C2.71875 39.4495 2.90971 39.9105 3.24962 40.2504C3.58953 40.5903 4.05054 40.7812 4.53125 40.7812H53.4688C53.9495 40.7812 54.4105 40.5903 54.7504 40.2504ZM5.4375 4.53125H52.5625C52.8029 4.53125 53.0334 4.62673 53.2033 4.79668C53.3733 4.96664 53.4688 5.19715 53.4688 5.4375V34.4375C53.4688 34.6779 53.3733 34.9084 53.2033 35.0783C53.0334 35.2483 52.8029 35.3438 52.5625 35.3438H5.4375C5.19715 35.3438 4.96664 35.2483 4.79668 35.0783C4.62673 34.9084 4.53125 34.6779 4.53125 34.4375V5.4375C4.53125 5.19715 4.62673 4.96664 4.79668 4.79668C4.96664 4.62673 5.19715 4.53125 5.4375 4.53125ZM6.34375 33.5312H51.6562V6.34375H6.34375V33.5312ZM51.6562 37.1562V38.9688H53.4688V37.1562H51.6562ZM48.0312 37.1562H49.8438V38.9688H48.0312V37.1562ZM9.0625 13.5938H12.6875C12.9279 13.5938 13.1584 13.4983 13.3283 13.3283C13.4983 13.1584 13.5938 12.9279 13.5938 12.6875V9.0625C13.5938 8.82215 13.4983 8.59164 13.3283 8.42168C13.1584 8.25173 12.9279 8.15625 12.6875 8.15625H9.0625C8.82215 8.15625 8.59164 8.25173 8.42168 8.42168C8.25173 8.59164 8.15625 8.82215 8.15625 9.0625V12.6875C8.15625 12.9279 8.25173 13.1584 8.42168 13.3283C8.59164 13.4983 8.82215 13.5938 9.0625 13.5938ZM9.96875 9.96875H11.7812V11.7812H9.96875V9.96875ZM30.8125 13.5938H27.1875C26.9471 13.5938 26.7166 13.4983 26.5467 13.3283C26.3767 13.1584 26.2812 12.9279 26.2812 12.6875V9.0625C26.2812 8.82215 26.3767 8.59164 26.5467 8.42168C26.7166 8.25173 26.9471 8.15625 27.1875 8.15625H30.8125C31.0529 8.15625 31.2834 8.25173 31.4533 8.42168C31.6233 8.59164 31.7188 8.82215 31.7188 9.0625V12.6875C31.7188 12.9279 31.6233 13.1584 31.4533 13.3283C31.2834 13.4983 31.0529 13.5938 30.8125 13.5938ZM29.9062 9.96875H28.0938V11.7812H29.9062V9.96875ZM9.0625 31.7188H12.6875C12.9279 31.7188 13.1584 31.6233 13.3283 31.4533C13.4983 31.2834 13.5938 31.0529 13.5938 30.8125V27.1875C13.5938 26.9471 13.4983 26.7166 13.3283 26.5467C13.1584 26.3767 12.9279 26.2812 12.6875 26.2812H9.0625C8.82215 26.2812 8.59164 26.3767 8.42168 26.5467C8.25173 26.7166 8.15625 26.9471 8.15625 27.1875V30.8125C8.15625 31.0529 8.25173 31.2834 8.42168 31.4533C8.59164 31.6233 8.82215 31.7188 9.0625 31.7188ZM9.96875 28.0938H11.7812V29.9062H9.96875V28.0938ZM30.8125 31.7188H27.1875C26.9471 31.7188 26.7166 31.6233 26.5467 31.4533C26.3767 31.2834 26.2812 31.0529 26.2812 30.8125V27.1875C26.2812 26.9471 26.3767 26.7166 26.5467 26.5467C26.7166 26.3767 26.9471 26.2812 27.1875 26.2812H30.8125C31.0529 26.2812 31.2834 26.3767 31.4533 26.5467C31.6233 26.7166 31.7188 26.9471 31.7188 27.1875V30.8125C31.7188 31.0529 31.6233 31.2834 31.4533 31.4533C31.2834 31.6233 31.0529 31.7188 30.8125 31.7188ZM29.9062 28.0938H28.0938V29.9062H29.9062V28.0938ZM11.7812 15.4062H9.96875V17.2188H11.7812V15.4062ZM9.96875 19.0312H11.7812V20.8438H9.96875V19.0312ZM11.7812 22.6562H9.96875V24.4688H11.7812V22.6562ZM28.0938 15.4062H29.9062V17.2188H28.0938V15.4062ZM29.9062 19.0312H28.0938V20.8438H29.9062V19.0312ZM28.0938 22.6562H29.9062V24.4688H28.0938V22.6562ZM17.2188 9.96875H15.4062V11.7812H17.2188V9.96875ZM19.0312 9.96875H20.8438V11.7812H19.0312V9.96875ZM24.4688 9.96875H22.6562V11.7812H24.4688V9.96875ZM15.4062 28.0938H17.2188V29.9062H15.4062V28.0938ZM20.8438 28.0938H19.0312V29.9062H20.8438V28.0938ZM22.6562 28.0938H24.4688V29.9062H22.6562V28.0938ZM15.4063 25.375H24.4688C24.648 25.375 24.8231 25.3218 24.9721 25.2222C25.1211 25.1226 25.2373 24.9811 25.3058 24.8155C25.3744 24.65 25.3924 24.4678 25.3574 24.292C25.3225 24.1162 25.2362 23.9548 25.1095 23.828L16.047 14.7655C15.9202 14.6388 15.7588 14.5525 15.583 14.5176C15.4072 14.4826 15.225 14.5006 15.0595 14.5692C14.8939 14.6377 14.7524 14.7539 14.6528 14.9029C14.5532 15.0519 14.5 15.227 14.5 15.4062V24.4688C14.5 24.7091 14.5955 24.9396 14.7654 25.1096C14.9354 25.2795 15.1659 25.375 15.4063 25.375ZM16.3125 17.5939L22.2811 23.5625H16.3125V17.5939ZM45.9533 26.9221C45.7834 27.092 45.5529 27.1875 45.3125 27.1875H36.25C36.0096 27.1875 35.7791 27.092 35.6092 26.9221C35.4392 26.7521 35.3438 26.5216 35.3438 26.2812V17.2188C35.3438 16.9784 35.4392 16.7479 35.6092 16.5779C35.7791 16.408 36.0096 16.3125 36.25 16.3125H38.9688V13.5938C38.9688 13.3534 39.0642 13.1229 39.2342 12.9529C39.4041 12.783 39.6346 12.6875 39.875 12.6875H48.9375C49.1779 12.6875 49.4084 12.783 49.5783 12.9529C49.7483 13.1229 49.8438 13.3534 49.8438 13.5938V22.6562C49.8438 22.8966 49.7483 23.1271 49.5783 23.2971C49.4084 23.467 49.1779 23.5625 48.9375 23.5625H46.2188V26.2812C46.2188 26.5216 46.1233 26.7521 45.9533 26.9221ZM48.0312 14.5H40.7812V16.3125H45.3125C45.5529 16.3125 45.7834 16.408 45.9533 16.5779C46.1233 16.7479 46.2188 16.9784 46.2188 17.2188V21.75H48.0312V14.5ZM44.4062 25.375V18.125H37.1562V25.375H44.4062Z" fill="url(#paint0_linear)"></path><defs><linearGradient id="paint0_linear" x1="1" y1="1" x2="57" y2="57" gradientUnits="userSpaceOnUse"><stop stop-color="#FF8C38"></stop><stop offset="1" stop-color="#FF5C38"></stop></linearGradient></defs></svg>
